<?xml version="1.0" standalone="no"?>
<!DOCTYPE svg PUBLIC "-//W3C//DTD SVG 1.1//EN" "http://www.w3.org/Graphics/SVG/1.1/DTD/svg11.dtd" >
<svg xmlns="http://www.w3.org/2000/svg" xmlns:xlink="http://www.w3.org/1999/xlink" version="1.1">
<metadata></metadata>
<defs>
<font id="feniceregular" horiz-adv-x="435" >
<font-face units-per-em="743" ascent="594" descent="-149" />
<missing-glyph horiz-adv-x="160" />
<glyph unicode="&#xd;" horiz-adv-x="160" />
<glyph unicode=" "  horiz-adv-x="160" />
<glyph unicode="&#x09;" horiz-adv-x="160" />
<glyph unicode="&#xa0;" horiz-adv-x="160" />
<glyph unicode="!" horiz-adv-x="143" d="M114 467l-30 -283h-19l-32 292q-2 16 -4 39.5t-2 28.5q0 28 9 43t34 15q30 0 41 -15.5t11 -44.5q0 -19 -1 -28q-4 -24 -7 -47zM124 36q0 -19 -14 -33t-34 -14q-21 0 -36 14t-15 35q0 20 16.5 34.5t34.5 14.5q20 0 34 -15t14 -36z" />
<glyph unicode="&#x22;" horiz-adv-x="180" d="M158 552l-20 -141h-12l-17 141q-3 17 4 30t21 13q13 0 19.5 -12.5t4.5 -30.5zM72 552l-19 -141h-13l-17 141q-1 4 -1 12q0 31 27 31q12 0 17.5 -12t5.5 -31z" />
<glyph unicode="#" horiz-adv-x="477" d="M458 592l-10 -26h-102l-37 -86h103l-12 -26h-102l-51 -113h-42l47 113h-82l-48 -113h-43l47 112h-104l11 27h104l36 84h-104l14 26h101l48 111h45l-48 -109h84l45 108h45l-46 -108h101zM301 565h-82l-37 -85h81z" />
<glyph unicode="$" horiz-adv-x="434" d="M414 175q0 -70 -44 -119t-115 -62l-26 -5v-63h-21v61q-57 0 -117 19q-25 8 -31 10q-19 9 -30 14v188h19l4 -16l14 -62q16 -57 38 -88q19 -26 45 -36q19 -7 58 -11v269l-36 12q-74 25 -110 59q-41 39 -41 98q0 60 44 105t100 53l40 6v47h19v-47q20 0 43 -4t35 -5.5 t32 -8.5t44 -16v-166h-16l-18 64q-8 31 -13 44q-14 35 -35 51q-16 12 -34 17t-39 5v-230l26 -9q86 -29 123 -66q42 -41 42 -108zM206 365v223q-38 7 -82 -22q-51 -34 -51 -90q0 -51 66 -86q22 -11 67 -25zM350 138q0 40 -34 75q-51 53 -90 53v-259q53 0 88.5 38.5t35.5 92.5 z" />
<glyph unicode="%" horiz-adv-x="592" d="M574 180q0 -75 -30 -128q-35 -62 -98 -62q-66 0 -104 57q-34 51 -34 124q0 68 36.5 121.5t96.5 53.5q62 0 100 -55q33 -48 33 -111zM449 585l-287 -585l-16 9l285 584zM286 436q0 -75 -27 -125q-33 -61 -97 -61q-63 0 -102 56q-35 51 -35 121q0 68 34 118q38 55 98 55 q62 0 98 -55q31 -47 31 -109zM511 178q0 68 -10 101q-16 53 -61 53t-61 -53q-10 -33 -10 -102q0 -83 8 -114q15 -60 65 -60q56 0 66 88q3 27 3 87zM224 434q0 71 -8 101q-14 53 -59 53q-46 0 -62 -53q-10 -33 -10 -102q0 -81 8 -111q16 -59 66 -59q33 0 49 27.5t16 111.5v32 z" />
<glyph unicode="&#x26;" horiz-adv-x="562" d="M540 2h-133l-30 46q-27 -29 -70.5 -46t-86.5 -17q-75 0 -135.5 50t-60.5 124q0 69 68 132q53 49 83 54q-8 6 -27 47q-24 51 -24 85q0 54 38.5 92.5t91.5 38.5q62 0 97 -26t35 -73q0 -40 -29 -71q-22 -24 -65 -47l-39 -22l164 -236q10 22 17 41.5t11.5 41.5t7.5 41t3 39 h-81v20h144v-21h-45q0 -23 -2 -37.5t-7 -38.5t-11 -42.5t-26 -57.5l65 -100h47v-17zM313 523q-7 70 -63 70q-24 0 -44 -22t-20 -42q0 -18 6 -41.5t19 -46.5l31 -54q35 11 53.5 41.5t18.5 72.5q0 15 -1 22zM366 64l-180 265q-41 -26 -60 -54q-22 -32 -22 -78v-12q2 -9 2 -13 q6 -44 39 -92q41 -59 93 -64q6 -1 12 -1h12q32 0 55.5 10.5t48.5 38.5z" />
<glyph unicode="'" horiz-adv-x="100" d="M77 555l-18 -142h-13l-18 142q-2 18 5.5 30.5t20.5 11.5q13 0 19 -12t4 -30z" />
<glyph unicode="(" horiz-adv-x="212" d="M195 590l-6 -10q-47 -57 -71.5 -144t-24.5 -191q0 -102 30 -204q27 -92 66 -144l3 -5l-1 -5l-8 9q-67 62 -106 148q-43 95 -43 201q0 104 44 199q41 89 105 140l8 7z" />
<glyph unicode=")" horiz-adv-x="214" d="M199 250q0 -109 -39.5 -199.5t-107.5 -150.5l-9 -8l-2 3l3 5q40 56 68.5 151.5t28.5 197.5q0 103 -24 191t-71 144l-9 10l6 1l10 -7q61 -51 103.5 -143.5t42.5 -194.5z" />
<glyph unicode="*" horiz-adv-x="354" d="M336 367q0 -13 -11 -21t-26 -4q-13 3 -23 11t-20 17l-63 48l12 -88q0 -6 2.5 -18.5t2.5 -15.5q0 -7 -3 -13q-10 -19 -30 -19q-11 0 -18 7t-11 20q-2 8 1.5 20t3.5 17l14 91l-85 -68q-12 -10 -13 -10q-7 -4 -15 -4q-19 0 -26 18q-2 6 -2 10q0 5 3.5 13t7.5 11q6 5 20 10 l98 41l-93 34q-10 3 -20.5 7.5t-14 13t-3.5 16.5t4 16q11 17 33 12q7 -2 15 -7q1 -1 13 -10l78 -61l-18 119q0 14 3 20q9 17 29 17q19 0 26 -14l3 -17l-15 -124l63 51q17 14 26 20q15 10 24 9q14 -2 21 -10.5t7 -18.5q0 -14 -15 -24q-4 -3 -30 -13l-85 -36l71 -28l44 -17 q8 -3 11.5 -10t3.5 -18z" />
<glyph unicode="+" horiz-adv-x="463" d="M440 187h-187v-187h-47l1 188h-187v47h185v186h45v-186h190v-48z" />
<glyph unicode="," horiz-adv-x="136" d="M117 24q0 -24 -7 -38q-12 -17 -19 -28q-11 -17 -30.5 -35.5t-34.5 -26.5l-11 14q19 9 32 22q10 9 25 30q7 9 13 25q-6 -2 -11 -2q-18 0 -33 13t-15 31q0 17 15 31t31 14q19 0 32 -14t13 -36z" />
<glyph unicode="-" horiz-adv-x="210" d="M185 274h-161v29h161v-29z" />
<glyph unicode="." horiz-adv-x="134" d="M67 -11q-21 0 -33 13t-12 32t11.5 32t33.5 13t33.5 -13t11.5 -32t-11.5 -32t-33.5 -13z" />
<glyph unicode="/" horiz-adv-x="514" d="M496 601l-425 -799h-39l425 799h39z" />
<glyph unicode="0" d="M417 312q0 -128 -48 -221q-53 -103 -143 -103q-103 0 -156 104q-43 85 -43 214q0 122 43 206q52 101 150 101q96 0 150 -101q47 -87 47 -200zM328 314v45q0 109 -15 157q-24 77 -93 77q-62 0 -88 -100q-19 -72 -19 -189q0 -128 16 -192q26 -102 95 -102q84 0 99 153 q5 50 5 151z" />
<glyph unicode="1" horiz-adv-x="292" d="M273 -1h-201v16h66v509q-22 -18 -31 -25q-17 -14 -30.5 -22.5t-24.5 -15.5t-25 -14l-5 16q24 13 47 29q15 11 45 35q41 31 75 73h33v-585h51v-16z" />
<glyph unicode="2" horiz-adv-x="410" d="M397 451q0 -61 -48 -127q-34 -47 -78 -81q-73 -57 -145 -113q-64 -50 -72 -53h314v67h21v-145h-366v77q20 12 88.5 77.5t85.5 86.5q50 63 67 93q39 68 39 131q0 46 -14 74q-22 44 -80 51q-4 1 -7 1h-7q-56 0 -75 -50l-54 -140h-19v179q9 5 93 20q51 9 67 9 q93 0 141.5 -41.5t48.5 -115.5z" />
<glyph unicode="3" horiz-adv-x="406" d="M389 169q0 -76 -66 -131q-61 -51 -131 -51q-8 1 -12 1q-45 0 -84 12.5t-68 33.5v173h19l10 -30q38 -115 62 -147q17 -23 51 -23q72 0 102 43q26 37 26 116q0 64 -25 98q-32 43 -105 43h-32v23h48q62 0 85 44q16 30 16 94q0 58 -21 92q-24 39 -73 39q-43 0 -68 -29 q-19 -22 -38 -79l-28 -81h-18v160q17 13 62 28q54 18 91 18q71 0 126 -41.5t55 -106.5q0 -54 -33.5 -91.5t-89.5 -51.5l-23 -7l30 -6q57 -11 94.5 -49.5t37.5 -93.5z" />
<glyph unicode="4" d="M414 180h-70v-165h48v-16h-184v17h54v163h-240v26q41 60 67 96.5t70 95.5q36 50 77 102q33 43 80 101h28v-386h70v-34zM262 214v284l-90 -115q-44 -59 -61 -83q-25 -35 -58 -86h209z" />
<glyph unicode="5" horiz-adv-x="401" d="M378 201q0 -88 -61 -151t-146 -63q-32 0 -80.5 15t-70.5 32v154h27l15 -59q13 -53 36 -84q29 -39 73 -39q6 1 10 1q64 6 86 45t22 130q0 88 -20 133q-24 54 -84 60q-48 0 -82.5 -22t-48.5 -66h-17v311h308v-72h-292v-193q54 66 138 66q80 0 133.5 -57.5t53.5 -140.5z" />
<glyph unicode="6" horiz-adv-x="426" d="M406 195q0 -81 -52 -144t-125 -63q-96 0 -150.5 84t-54.5 225q0 136 47 219q54 95 159 95q38 0 64 -6t59 -24v-148h-19l-22 71q-11 41 -26 61q-20 28 -51 28q-56 0 -87 -46q-39 -58 -39 -186v-39t2 -31q19 41 52 65.5t75 24.5q72 0 120 -55t48 -131zM319 200 q0 64 -18 103q-25 54 -79 54q-52 0 -79 -50q-23 -42 -23 -110q0 -77 20 -124q27 -64 88 -64q55 0 76 60q15 42 15 131z" />
<glyph unicode="7" horiz-adv-x="407" d="M390 594l-30 -71q-18 -44 -33 -83q-18 -46 -30 -84q-31 -96 -49 -192q-14 -76 -14 -109v-33h38v-22h-167v20h45v28q0 31 8 82q12 66 19.5 90.5t23.5 57.5q27 57 84 151q48 80 59 94h-297v-92h-18v163h361z" />
<glyph unicode="8" horiz-adv-x="443" d="M426 166q0 -74 -56.5 -125.5t-133.5 -51.5q-85 0 -142 44q-64 49 -64 132q0 55 40 100t100 54q-54 9 -89.5 47.5t-35.5 90.5q0 69 52.5 113.5t130.5 44.5q76 0 126.5 -43.5t50.5 -111.5q0 -53 -35.5 -91.5t-89.5 -46.5l26 -7q52 -14 86 -53t34 -96zM319 466q0 57 -18 90 q-23 42 -74 42t-76 -45q-21 -38 -21 -99q0 -62 26.5 -93t73.5 -31t70 44q19 36 19 92zM333 155q0 74 -14 104q-24 51 -95 51q-57 0 -84 -49q-21 -38 -21 -99q0 -87 31 -122q27 -30 86 -30q58 0 81 47q16 33 16 98z" />
<glyph unicode="9" horiz-adv-x="428" d="M414 299q0 -125 -54 -213q-60 -98 -163 -98q-33 0 -60 8t-56 26v151h16l22 -64q23 -66 41 -84q13 -14 41 -14q67 0 99 74q25 58 25 147v82q-19 -43 -52 -67.5t-80 -24.5q-64 0 -114 56t-50 127q0 97 60 156q53 52 124 52q107 0 159 -102q42 -82 42 -212zM316 418 q0 95 -33 139q-28 37 -76 37t-73 -60q-20 -48 -20 -117t20 -113q26 -57 78 -57t78 48t26 123z" />
<glyph unicode=":" horiz-adv-x="134" d="M70 253q-21 0 -33 13t-12 32t11.5 32t33.5 13t33.5 -13t11.5 -32t-11.5 -32t-33.5 -13zM71 -12q-21 0 -33 13t-12 32t11.5 32t33.5 13t33.5 -13t11.5 -32t-11.5 -32t-33.5 -13z" />
<glyph unicode=";" horiz-adv-x="141" d="M76 255q-21 0 -33 13t-12 32t11.5 32t33.5 13t33.5 -13t11.5 -32t-11.5 -32t-33.5 -13zM114 26q0 -23 -7 -38q-11 -17 -18 -28q-11 -17 -30.5 -35.5t-34.5 -26.5l-11 14q19 9 32 22q10 9 25 30q7 9 13 25q-6 -2 -11 -2q-18 0 -33 13t-15 31t15 32t31 14q18 0 31 -15 t13 -36z" />
<glyph unicode="&#x3c;" horiz-adv-x="464" d="M442 1l-418 191l1 46l416 200v-52l-355 -174l356 -162v-49z" />
<glyph unicode="=" horiz-adv-x="411" d="M387 243h-362v41h362v-41zM387 141h-362v41h362v-41z" />
<glyph unicode="&#x3e;" horiz-adv-x="464" d="M438 192l-419 -191v49l357 162l-358 174l1 52l419 -200v-46z" />
<glyph unicode="?" horiz-adv-x="354" d="M338 467q0 -38 -20 -70q-14 -23 -49 -56q-60 -58 -67 -66q-30 -36 -30 -76v-15h-22v15q0 33 11 58t33 55q28 37 38 70t10 88q0 49 -8 71q-16 43 -64 43q-44 0 -70 -36q-16 -23 -32 -78l-23 -77h-18v167l30 16q26 13 59.5 20.5t64.5 7.5q62 0 107 -36q50 -40 50 -101z M219 37q0 -20 -15 -34t-35 -14t-35 14t-15 35q0 20 15 35t36 15t35 -15t14 -36z" />
<glyph unicode="@" horiz-adv-x="580" d="M562 324q0 -84 -52.5 -149t-125.5 -65q-31 0 -46 30q-5 10 -9 31l-22 -25q-15 -18 -31.5 -25.5t-40.5 -7.5q-43 0 -71.5 35.5t-28.5 81.5q0 68 58 120q53 47 108 47q47 0 58 -34l7 -21l15 46l64 1l-58 -214q-2 -12 -2 -20q0 -24 14 -24q46 0 84.5 60t38.5 127 q0 86 -67 137q-62 47 -150 47q-96 0 -163 -67t-67 -163q0 -99 69 -170t167 -71q101 0 160 53q19 17 39 54h49q-11 -19 -21 -37q-32 -44 -77 -70q-65 -38 -151 -38q-113 0 -194 81t-81 195q0 112 79 192t191 80q103 0 180 -60.5t77 -156.5zM352 312q0 28 -11.5 46.5 t-32.5 18.5q-37 0 -71.5 -61t-34.5 -120q0 -26 12.5 -44t38.5 -18q36 0 69 67q30 62 30 111z" />
<glyph unicode="A" horiz-adv-x="560" d="M545 0h-195v17h66l-72 220h-177l-71 -220h76v-17h-149v17h50l187 573h54l196 -573h35v-17zM338 257l-85 247l-80 -247h165z" />
<glyph unicode="B" horiz-adv-x="490" d="M477 166q0 -94 -86 -135q-64 -31 -176 -31h-187v17h53v555h-58v18h213q93 0 145.5 -36t52.5 -100q0 -32 -18 -65t-67 -58q-39 -20 -61 -20q15 0 41.5 -5t31.5 -6q49 -14 80 -46q36 -37 36 -88zM346 454q0 51 -26 84.5t-72 33.5h-79v-255h61q52 0 84 35t32 102zM384 168 q0 56 -28 91q-32 39 -89 39h-97v-281h63q70 0 106 30q45 37 45 121z" />
<glyph unicode="C" horiz-adv-x="463" d="M449 27q-28 -16 -68.5 -27t-84.5 -11q-130 0 -202 96q-65 86 -65 216q0 128 64 212q72 95 200 95q44 0 81.5 -9.5t68.5 -26.5v-164h-17l-18 55q-20 64 -31 80q-31 47 -95 47q-95 0 -132 -98q-25 -66 -25 -195q0 -122 20 -182q31 -93 116 -104q7 -1 13 -1h7q65 0 103 64 q25 43 41 122l4 21h20v-190z" />
<glyph unicode="D" horiz-adv-x="520" d="M506 294q0 -133 -65 -207q-77 -88 -244 -88h-171v18h55v555h-56v18h192q146 0 224 -96q65 -80 65 -200zM406 283q0 142 -24 196q-42 94 -177 94h-35v-556h42q100 0 145 57q49 62 49 209z" />
<glyph unicode="E" horiz-adv-x="486" d="M462 0h-438v17h54v555h-56v18h432v-187h-19l-24 84q-7 25 -16.5 45.5t-19 27t-26 9.5t-32.5 3h-153v-255h57h14q10 0 18 2.5t17 10.5q19 17 27 49l14 53h18v-252h-17l-10 35q-10 35 -17.5 51.5t-13.5 21.5q-13 10 -31 10h-76v-281h138q52 0 71 17t41 81q8 25 17 50 q3 9 7 32l4 19h20v-216z" />
<glyph unicode="F" horiz-adv-x="454" d="M437 405h-19l-25 84q-7 26 -21.5 48t-28.5 27q-23 8 -46 8h-133v-255h40h20q16 0 25 2.5t16.5 10t16 21t10.5 24.5l11 55h19v-251h-18l-12 44q-7 26 -15.5 41.5t-16.5 22t-16 9t-21 2.5h-59v-281h75v-17h-214v17h54v555h-55v18h413v-185z" />
<glyph unicode="G" horiz-adv-x="531" d="M514 240h-45v-202q-33 -22 -78 -35.5t-96 -13.5q-135 0 -206 88q-63 78 -63 203q0 140 64 228q74 102 215 102q25 0 71.5 -8.5t81.5 -27.5v-167h-15l-25 71q-24 70 -53 94q-25 20 -64 20q-84 0 -128 -62q-53 -74 -53 -253q0 -147 47 -213q41 -57 116 -57q41 0 64 15 q38 24 38 85v133h-97v20h226v-20z" />
<glyph unicode="H" horiz-adv-x="574" d="M557 572h-56v-555h55v-17h-204v17h59v281h-236v-281h61v-17h-203v18h54v554h-54v18h204v-18h-62v-255h236v255h-56v18h202v-18z" />
<glyph unicode="I" horiz-adv-x="247" d="M227 572h-54v-555h50v-17h-196v17h54v555h-51v18h197v-18z" />
<glyph unicode="J" horiz-adv-x="379" d="M364 572h-48v-360q0 -109 -19 -153q-32 -74 -134 -74q-36 0 -77 9.5t-56 18.5v211h22l12 -60l14 -58q12 -54 26 -76q18 -28 50 -28t52.5 18.5t20.5 59.5v492h-72v18h209v-18z" />
<glyph unicode="K" horiz-adv-x="535" d="M513 0h-128l-216 311v-294h70v-17h-206v17h48v555h-55v18h204v-18h-61v-256l217 256h-60v18h146v-18h-56l-183 -213l245 -342h35v-17z" />
<glyph unicode="L" horiz-adv-x="447" d="M428 0h-399v17h54l1 555h-59v18h222v-18h-81v-555h114q46 0 73 32q19 22 33 83q6 26 16 74l6 28h20v-234z" />
<glyph unicode="M" horiz-adv-x="644" d="M630 0h-217v17h71v539l-173 -556h-28l-180 554v-537h72v-17h-145v17h54v555h-57v18h152l149 -463l144 463h154v-18h-54v-555h58v-17z" />
<glyph unicode="N" horiz-adv-x="537" d="M524 572h-48v-572h-26l-341 563v-546h77v-17h-151v17h52v555h-56v18h162l258 -426v408h-71v18h144v-18z" />
<glyph unicode="O" horiz-adv-x="529" d="M511 298q0 -127 -59 -212q-68 -97 -189 -97q-105 0 -173 102q-62 93 -62 219q0 118 64 204q70 94 178 94q116 0 182 -98q59 -87 59 -212zM409 303q0 135 -17 190q-30 99 -123 99q-107 0 -130 -154q-8 -54 -8 -157q0 -125 18 -181q30 -93 117 -93q85 0 118 91 q25 68 25 205z" />
<glyph unicode="P" horiz-adv-x="468" d="M452 441q0 -67 -61 -111q-57 -41 -132 -41h-91v-272h72v-17h-216v17h55v555h-52v18h229q78 0 134 -38q62 -42 62 -111zM361 445q0 65 -32 96t-85 31h-75v-263h88q52 0 78 30.5t26 105.5z" />
<glyph unicode="Q" horiz-adv-x="531" d="M513 291q0 -93 -37 -169q-45 -92 -129 -123l-34 -12v-31q0 -16 3 -30.5t13.5 -23t18.5 -10.5q4 -1 17 -1v-15q-12 -6 -39 -6q-20 0 -37.5 4.5t-30 15.5t-19 34t-6.5 39v22l-16 5q-87 27 -137 108t-50 206q0 116 66 204q71 94 176 94q114 0 181 -98q60 -88 60 -213z M411 296q0 135 -17 191q-30 98 -122 98q-63 0 -97 -51q-27 -40 -34.5 -105.5t-7.5 -153.5q0 -125 18 -181q30 -93 117 -93q88 0 120 92q23 66 23 203z" />
<glyph unicode="R" horiz-adv-x="530" d="M514 0h-133l-211 311v-294h60v-17h-204v17h56v555h-53v18h248q84 0 132.5 -37.5t48.5 -102.5q0 -62 -46.5 -102.5t-107.5 -40.5l-30 -2l196 -288h44v-17zM368 453q0 63 -32 91t-100 28h-64v-255h38q78 0 116 29q42 32 42 107z" />
<glyph unicode="S" horiz-adv-x="430" d="M416 172q0 -83 -68 -136q-61 -48 -145 -48q-47 0 -94 13.5t-77 35.5v185h18l4 -18l20 -73q15 -58 42 -87q33 -36 86 -36q73 0 110 35t37 93q0 56 -47 91q-29 21 -92 44q-100 36 -137 67q-47 39 -47 107q0 71 57 116t142 45q42 0 89.5 -12t67.5 -25v-164h-19l-19 71 q-17 66 -44 89t-76 23q-8 1 -13 1q-51 0 -91.5 -31t-40.5 -79q0 -64 85 -99l160 -62q46 -27 69 -62.5t23 -83.5z" />
<glyph unicode="T" horiz-adv-x="446" d="M429 402h-16q-8 41 -13 64q-16 70 -30 91q-7 10 -17.5 12.5t-29.5 2.5h-51v-555h69v-17h-211v17h59v555h-52q-17 0 -26.5 -2.5t-20 -14t-27.5 -83.5q-5 -24 -14 -70h-17v188h397v-188z" />
<glyph unicode="U" horiz-adv-x="503" d="M487 572h-48v-402q0 -95 -52 -142q-45 -41 -123 -41q-90 0 -137 48t-47 136v401h-51v18h200v-18h-61v-387q0 -93 26 -132.5t83 -39.5q68 0 100 32q38 38 38 132v395h-73v18h145v-18z" />
<glyph unicode="V" horiz-adv-x="530" d="M511 572h-37l-178 -572h-44l-181 572h-42v18h203v-18h-70l145 -469l143 469h-66v18h127v-18z" />
<glyph unicode="W" horiz-adv-x="707" d="M691 572h-40l-152 -572h-33l-105 397l-107 -397h-36l-153 572h-37v18h181v-18h-55l114 -437l81 304l-35 133h-53v18h207v-18h-66l113 -429l115 429h-58v18h119v-18z" />
<glyph unicode="X" horiz-adv-x="538" d="M518 0h-207v17h76l-134 261l-159 -261h86v-17h-155v17h43l174 283l-137 272h-51v18h207v-18h-62l98 -192l117 192h-69v18h142v-18h-49l-130 -214l174 -341h36v-17z" />
<glyph unicode="Y" horiz-adv-x="499" d="M482 572h-49l-136 -279v-276h62v-17h-210v17h66v245l-137 310h-50v18h202v-18h-58l111 -260l126 260h-55v18h128v-18z" />
<glyph unicode="Z" horiz-adv-x="454" d="M431 0h-411l303 572h-150q-27 0 -38.5 -5.5t-26.5 -21.5q-18 -20 -31 -72l-18 -70h-17v187h384l-301 -573h149h22q28 0 41.5 6t28.5 33q12 22 22 50q7 21 11 39l15 71h17v-216z" />
<glyph unicode="[" horiz-adv-x="177" d="M165 -147h-137v738h131v-17h-60v-702h66v-19z" />
<glyph unicode="\" horiz-adv-x="418" d="M397 -15h-62l-310 612h61z" />
<glyph unicode="]" horiz-adv-x="174" d="M151 -147h-137v19h65v702h-59v17h131v-738z" />
<glyph unicode="^" horiz-adv-x="282" d="M264 480q-12 0 -24 2t-30.5 7t-31.5 10t-32 14q-13 -6 -33 -13.5t-31.5 -10.5t-25.5 -6t-31 -5v33q19 5 33.5 10.5t30 16.5t30.5 22t28 26q17 -18 37 -33q15 -11 28 -18q25 -14 52 -22v-33z" />
<glyph unicode="_" horiz-adv-x="566" d="M589 -142h-586v28h586v-28z" />
<glyph unicode="`" horiz-adv-x="219" d="M201 521l-6 -31q-24 0 -50 5t-42.5 12t-33.5 16q-24 13 -42 28l24 42q5 -6 29 -24q30 -23 49 -31.5t32 -12.5t40 -4z" />
<glyph unicode="a" horiz-adv-x="421" d="M404 0h-122v77q-14 -43 -53.5 -66t-88.5 -23q-47 0 -81 34t-34 81q0 77 71 106q20 8 81 24l46 11.5t49 18.5l15 7v64q0 42 -13 65q-18 31 -60 31q-11 1 -15 1q-36 0 -58 -30q-12 -16 -31 -64l-22 -56h-18v134q19 8 38 14.5t37 9.5t36.5 5t37.5 2q89 0 121 -47 q22 -32 22 -103v-279h42v-17zM287 207v41l-40 -15q-55 -20 -110 -39q-34 -20 -34 -83q0 -42 18.5 -70t55.5 -28q44 0 75 41q27 36 33 85q2 15 2 35v33z" />
<glyph unicode="b" horiz-adv-x="434" d="M413 228q0 -93 -45 -162q-50 -77 -131 -77q-26 0 -54.5 15t-48.5 42l-15 19l-33 -65h-20v572h-43v18h121v-210q22 33 48.5 50t63.5 17q73 0 117 -70q40 -63 40 -149zM328 216q0 81 -18 135q-23 70 -72 70q-56 0 -79 -67q-16 -47 -16 -132q0 -94 12 -138q20 -73 78 -73 t80 70q15 47 15 135z" />
<glyph unicode="c" horiz-adv-x="364" d="M353 162l-3 -22q-11 -81 -53 -118q-36 -32 -95 -32q-81 0 -131 73q-46 67 -46 158q0 92 52 159q56 72 140 72q34 0 65.5 -5.5t62.5 -23.5v-152h-19l-10 36q-17 67 -38.5 97t-55.5 30q-49 0 -77 -44q-34 -54 -34 -175q0 -115 31 -161q28 -41 81 -41q43 0 71 33.5t36 83.5 l5 32h18z" />
<glyph unicode="d" horiz-adv-x="442" d="M423 0h-116v65q-21 -40 -42 -57q-28 -23 -69 -23q-77 0 -125 76q-44 69 -44 160q0 94 51.5 159.5t119.5 65.5q37 0 66 -25q25 -21 43 -60v211h-51v18h126v-573h41v-17zM308 195q0 99 -18 153q-25 73 -84 73q-42 0 -64 -42q-28 -52 -28 -170q0 -87 15 -132q23 -68 81 -68 q55 0 79 62q19 48 19 124z" />
<glyph unicode="e" horiz-adv-x="382" d="M364 162l-1 -14q0 -64 -43 -112t-106 -48q-80 0 -132.5 66.5t-52.5 167.5q0 93 51.5 160t127.5 67q67 0 113 -53q43 -50 43 -118q0 -11 -1 -17h-250v-51q0 -91 20 -139q26 -62 87 -62q54 0 91 48q33 43 33 93l1 12h19zM279 280l-1 47q0 42 -17 70q-20 33 -57 33 q-31 0 -54 -29t-29 -67l-8 -54h166z" />
<glyph unicode="f" horiz-adv-x="284" d="M268 487h-20l-3 10q-8 27 -16 55q-14 39 -39 39t-34 -30.5t-9 -82.5v-43h106v-18h-107v-400h70v-17h-192v17h50v400h-46v18h46v62q0 49 33 80t88 31q29 0 41 -1.5t32 -9.5v-110z" />
<glyph unicode="g" horiz-adv-x="427" d="M412 -19q0 -66 -57 -105q-53 -36 -135 -36q-68 0 -115 21q-58 26 -58 75q0 22 17 41.5t43 29.5q-35 6 -57.5 29t-22.5 58q0 44 29.5 78.5t62.5 34.5q-40 41 -40 101q0 59 46.5 99.5t106.5 40.5q40 0 75 -16h98v-18h-67l10 -10q19 -19 29 -43t10 -58q0 -24 -4 -39.5 t-18.5 -38.5t-48.5 -42q-41 -23 -83 -23q-30 0 -56 9t-47 24q-25 -5 -43 -21t-18 -39q0 -35 38 -49q27 -10 70 -10h18t15 1l19 -1h24h14q52 0 80 -9q65 -21 65 -84zM304 306q0 57 -10 84q-16 42 -59 42q-42 0 -59 -43q-12 -31 -12 -86q0 -59 9 -84q15 -42 58 -42q49 0 64 43 q9 26 9 86zM371 -55q0 40 -65 50q-27 4 -65 4l-86 2h-19q-11 -6 -24 -23q-16 -21 -16 -40q0 -41 42 -63q35 -18 86 -18q60 0 98 18q49 23 49 70z" />
<glyph unicode="h" horiz-adv-x="437" d="M417 0h-171v17h53v287q0 59 -6 77q-12 35 -51 35q-56 0 -79 -71q-16 -49 -16 -138v-190h57v-17h-175v17h42v555h-45v18h121v-227q9 30 42.5 54.5t68.5 24.5q64 0 89.5 -31t25.5 -102v-292h44v-17z" />
<glyph unicode="i" horiz-adv-x="207" d="M150 536q0 -21 -14.5 -34.5t-34.5 -13.5q-18 0 -33 14t-15 33t14 34t33 15q20 0 35 -14t15 -34zM189 0h-165v17h46v400h-43v18h121v-418h41v-17z" />
<glyph unicode="j" horiz-adv-x="179" d="M158 536q0 -22 -14 -35t-35 -13q-19 0 -33.5 13.5t-14.5 33.5q0 19 14 34t33 15q20 0 35 -14t15 -34zM148 20q0 -45 -3 -66.5t-11 -43.5q-14 -31 -40 -44.5t-62 -13.5h-24v18h15q23 0 34 10q15 13 15 44v72v421h-48v18h124v-415z" />
<glyph unicode="k" horiz-adv-x="438" d="M420 0h-114l-157 227v-210h58v-17h-178v17h42v555h-42v18h121v-356l165 183h-60v20h121v-20h-34l-130 -148l173 -252h35v-17z" />
<glyph unicode="l" horiz-adv-x="210" d="M191 0h-167v17h44v555h-45v18h123v-573h45v-17z" />
<glyph unicode="m" horiz-adv-x="664" d="M647 0h-169v17h50v308q0 52 -13 73t-53 21t-62.5 -44t-22.5 -110v-248h46v-17h-170v17h49v243q0 86 -2 102q-7 57 -60 57q-54 0 -75 -56q-16 -42 -16 -127v-219h50v-17h-169v17h43v400h-44v18h120v-62q13 36 45 55t67 19q40 0 70 -21t42 -57q16 37 50.5 58.5t68.5 18.5 q72 -6 96 -46q17 -29 17 -100v-43v-240h42v-17z" />
<glyph unicode="n" d="M417 0h-167v17h51v335q0 28 -16.5 47.5t-41.5 19.5q-49 0 -71.5 -48.5t-22.5 -118.5v-235h54v-17h-175v17h47v400h-47v18h117v-76q10 37 45 60.5t69 23.5q55 0 83 -25q34 -30 34 -96v-305h41v-17z" />
<glyph unicode="o" horiz-adv-x="417" d="M399 223q0 -97 -52.5 -165.5t-133.5 -68.5q-89 0 -140 76q-46 68 -46 165q0 86 43 148q52 74 143 74t143 -79q43 -66 43 -150zM310 246q0 84 -15 125q-23 63 -83 63q-67 0 -88 -77q-11 -41 -11 -148q0 -96 19 -142q25 -60 88 -60q60 0 79 82q11 48 11 157z" />
<glyph unicode="p" horiz-adv-x="444" d="M423 224q0 -93 -42 -160q-48 -76 -127 -76q-37 0 -64.5 19.5t-45.5 56.5v-199h55v-18h-178v18h47v552h-44v18h116v-75q22 45 52 65.5t69 20.5q85 0 127 -71q35 -59 35 -151zM338 223q0 82 -13 125q-22 74 -81 74q-56 0 -83 -70q-20 -52 -20 -128q0 -88 20 -141 q27 -72 89 -72q58 0 77 77q11 44 11 135z" />
<glyph unicode="q" horiz-adv-x="432" d="M418 -153h-174v16h53v199q-17 -36 -42.5 -55.5t-61.5 -19.5q-81 0 -126 70q-41 64 -41 169q0 84 47.5 151.5t120.5 67.5q82 0 131 -72q7 15 15 30l13 32h21v-572h44v-16zM301 226q0 118 -28 163q-23 37 -70 37q-56 0 -78 -74q-14 -47 -14 -127q0 -94 10 -135 q19 -79 78 -79q60 0 85 73q17 51 17 142z" />
<glyph unicode="r" horiz-adv-x="325" d="M306 265h-19l-24 73q-13 40 -20 53q-11 20 -24 20q-4 0 -12 -4q-30 -17 -46 -55.5t-16 -132.5v-33v-169h59v-17h-181v17h45v400h-47v18h117v-91q5 31 33 59q35 35 80 35q26 0 55 -15v-158z" />
<glyph unicode="s" horiz-adv-x="354" d="M337 129q0 -62 -47 -102t-118 -40q-36 0 -77 12t-59 25v143h18l21 -72q16 -55 38 -72q14 -10 52 -14q5 -1 16 -1q43 0 75 21q36 24 36 64q0 41 -49 67q-6 3 -94 35q-55 20 -76 36q-45 34 -45 88q0 64 59 100q46 28 100 28q33 0 66.5 -9.5t51.5 -20.5v-131h-19l-13 47 q-15 54 -33 74.5t-57 20.5q-42 0 -70 -15q-36 -19 -36 -58q0 -34 29 -55q19 -14 65 -29q83 -29 112 -48q54 -36 54 -94z" />
<glyph unicode="t" horiz-adv-x="295" d="M275 83q0 -33 -17 -58q-25 -37 -78 -37q-65 0 -88 42q-16 29 -16 94v21.5t1 21.5v250h-52v18h52v92h72v-92h100v-18h-99v-315q0 -34 6 -52q12 -36 43 -36q28 0 43 23t15 60v69h18v-83z" />
<glyph unicode="u" horiz-adv-x="437" d="M415 0h-120v62q-15 -34 -45 -53t-69 -19q-65 0 -93 46q-22 36 -22 101v280h-42v18h118v-297q0 -55 11 -83q16 -42 57 -38q47 4 69 54q17 39 17 100v246h-58v18h135v-418h42v-17z" />
<glyph unicode="v" horiz-adv-x="430" d="M408 417h-36l-143 -417h-29l-146 417h-32v18h173v-18h-61l109 -312l107 312h-62v18h120v-18z" />
<glyph unicode="w" horiz-adv-x="606" d="M589 417h-32l-134 -417h-34l-82 245l-81 -245h-35l-134 417h-31v18h155v-18h-43l99 -312l58 175l-38 137h-48v18h189v-18h-66l99 -318l105 318h-62v18h115v-18z" />
<glyph unicode="x" horiz-adv-x="451" d="M431 0h-189v17h66l-96 170l-117 -170h66v-17h-138v17h46l131 191l-120 209h-42v18h184v-18h-55l80 -140l98 140h-49v18h105v-18h-33l-109 -161l137 -239h35v-17z" />
<glyph unicode="y" horiz-adv-x="426" d="M407 417h-31l-131 -400q-31 -97 -39 -112q-29 -55 -82 -55q-33 0 -64 22v130h22l19 -68q5 -19 14 -36q14 -25 26 -25q20 0 35 23q10 15 20 46l23 68l-165 407h-33v18h174v-18h-59l118 -294l99 294h-67v18h121v-18z" />
<glyph unicode="z" horiz-adv-x="361" d="M347 435l-224 -418h90q35 0 45 3.5t24 19.5q7 9 15.5 30.5t11.5 36.5l17 62h17v-169h-316l226 417h-101q-9 0 -17.5 -0.5t-17.5 -5.5q-24 -15 -41 -76l-14 -51h-16v151h301z" />
<glyph unicode="{" horiz-adv-x="236" d="M213 595l-16 -5q-19 -7 -32 -26q-7 -10 -10.5 -27t-3.5 -27v-170q2 -10 -1.5 -32.5t-16 -37t-35.5 -22.5l-13 -5l15 -7q10 -5 18 -10t15 -14.5t10 -17t3 -17.5v-200q0 -25 2.5 -36.5t14 -25.5t34.5 -21l14 -4h-25q-21 0 -36 4t-36 17q-14 8 -22 34.5t-8 72.5v15q0 2 1 6 v136q0 9 -1 20.5t-15 25.5q-5 5 -11 9t-19 10l-11 5l11 5q14 5 21 9t15 13t12 28l3 18v189q0 34 24 61t67 27h32z" />
<glyph unicode="|" horiz-adv-x="111" d="M83 -110h-60l-1 706h61v-706z" />
<glyph unicode="}" horiz-adv-x="236" d="M220 245l-11 -5q-7 -3 -14.5 -7t-15.5 -12q-13 -14 -14.5 -25.5t-1.5 -20.5v-136v-6q0 -8 1 -16q0 -34 -6 -64.5t-24 -41.5q-34 -21 -72 -21h-25l14 4q23 7 33.5 20t14 27.5t3.5 35.5v200q0 10 3 17.5t10.5 17.5t14.5 15l18 9l15 7l-13 5q-23 8 -34.5 21.5t-16 38 t-2.5 32.5v170q0 21 -3 31.5t-11 22.5q-13 19 -32 26l-16 5h32q43 0 68 -28q10 -12 16.5 -28.5t6.5 -31.5v-189q1 -11 3.5 -23t13 -24.5t34.5 -20.5z" />
<glyph unicode="~" horiz-adv-x="324" d="M306 563q-12 -18 -35 -35q-30 -22 -58 -22q-27 0 -66 19.5t-56 19.5q-15 0 -29 -7q-8 -4 -26 -17l-13 13q18 26 41 41t47 15q28 0 81 -25q25 -12 48 -12q16 0 28 8q14 12 22 18z" />
<glyph unicode="&#xa1;" horiz-adv-x="142" d="M127 412q0 -19 -17.5 -33.5t-34.5 -14.5q-19 0 -33 15t-14 35q0 19 14 33t33 14q21 0 36.5 -14.5t15.5 -34.5zM119 -26q1 -16 3.5 -39.5t2.5 -28.5q0 -28 -8 -41q-11 -17 -36 -17q-29 0 -40 15.5t-11 44.5q0 15 2.5 36t5.5 39l29 283h19z" />
<glyph unicode="&#xa2;" horiz-adv-x="370" d="M355 305q0 -29 -11 -65.5t-33 -64.5t-56 -35l-30 -7v-61h-18v61l-24 2q-56 0 -102 59q-53 69 -53 176q0 74 35 131t96 80q27 10 46 10v39h18v-39l44 -3q36 -5 77 -24v-149l-19 -1l-22 72q-9 29 -10 32q-5 13 -17 30q-8 12 -20.5 18t-30.5 9v-420l9 1q31 3 51 20 q25 22 42 74q4 15 7 28t3 27h18zM205 158v416l-10 -2q-32 -6 -52 -47q-27 -56 -27 -173q0 -90 16.5 -135t64.5 -57z" />
<glyph unicode="&#xa3;" horiz-adv-x="432" d="M411 0h-370v71q35 8 59 30q29 27 29 66q0 23 -6.5 47t-14.5 36h-85v19h78l-29 71q-10 26 -15.5 47.5t-5.5 45.5q0 74 57 124.5t134 50.5q49 0 85 -10.5t70 -39.5v-160h-22l-36 107q-13 37 -40.5 61t-63.5 24q-47 0 -83.5 -29.5t-36.5 -70.5q0 -25 8 -51q11 -30 17 -46 l46 -122h155v-21h-147q2 -20 2 -36q0 -49 -42 -95q-33 -36 -63 -46h303v94h17v-167z" />
<glyph unicode="&#xa5;" horiz-adv-x="510" d="M482 572h-49l-136 -279v-276h62v-17h-210v17h66v245l-137 310h-50v18h202v-18h-58l111 -260l126 260h-55v18h128v-18zM439 267h-362v41h362v-41zM439 165h-362v41h362v-41z" />
<glyph unicode="&#xa7;" horiz-adv-x="398" d="M382 226q-3 -26 -19 -52q-10 -16 -28 -34l-17 -13l5 -4q23 -16 35.5 -37t12.5 -53q0 -62 -64 -119t-136 -57q-33 0 -70.5 11t-58.5 24l-6 3l13 122h24l-2 -41q0 -27 31 -50q27 -20 46 -22t27 -2.5t13 -0.5q59 0 92 24q37 27 37 82q0 34 -40 56q-31 17 -127 49l-30 11 q-64 22 -87 53q-14 19 -14 50q0 32 20 65q13 21 37 44l9 8l-8 6q-15 10 -26 31t-11 42q0 71 44 123q49 58 126 58q50 0 69 -7l50 -15l9 -3l-1 -5q1 -5 -2 -26.5t-4 -33.5l-3 -49v-8h-26l-5 67l-3 4q-17 19 -43 26q-27 10 -59 10q-41 0 -69.5 -20.5t-35.5 -63.5q-1 -3 -1 -6 v-5q0 -38 51 -67q28 -16 67 -27l13 -4l12 -3q22 -7 39.5 -12.5t38.5 -14.5q42 -18 60 -50q15 -26 15 -64zM324 192q2 8 2 15q0 24 -13 42q-17 24 -55 36l-150 47l-12 -14q-13 -13 -16.5 -28t-3.5 -39q0 -27 42 -50q5 -3 162 -60l18 -6l7 11q16 20 19 46z" />
<glyph unicode="&#xa8;" horiz-adv-x="278" d="M261 549q0 -19 -13.5 -33.5t-32.5 -14.5q-20 0 -34 16.5t-11 36.5q2 17 15.5 27t31.5 10q17 0 30.5 -12.5t13.5 -29.5zM116 546q0 -18 -13.5 -31.5t-31.5 -13.5t-32 15t-14 35q1 17 15 27.5t33 10.5q17 0 30 -13t13 -30z" />
<glyph unicode="&#xa9;" horiz-adv-x="644" d="M323 0q-141 0 -223 93q-74 83 -74 205q0 120 73 203q82 93 222 93t223 -93q75 -84 75 -205q0 -120 -74 -203q-83 -93 -222 -93zM322 30q125 0 199 83q66 74 66 183q0 108 -66 183q-73 83 -199 83q-125 0 -197 -82q-66 -75 -66 -183q0 -107 66 -183q73 -84 197 -84z M447 173l-9 -21l-8 -5q-16 -8 -45 -15.5t-53 -7.5q-79 0 -130.5 40.5t-51.5 107.5q-1 10 -1.5 17.5t-0.5 11.5q0 68 45 113q37 37 93 49q18 3 38 3q22 0 32 -1q4 0 22 -4l61 -15l6 -2l-9 -70h-15l1 28v5q0 10 -19 20t-30 12.5t-26.5 4t-25.5 1.5h-11q-8 -2 -12 -2 q-52 -12 -76.5 -49t-24.5 -89q0 -7 1 -15.5t1 -12.5q5 -55 44 -92t91 -37q37 0 57.5 5.5t42.5 18.5l10 5z" />
<glyph unicode="&#xaa;" horiz-adv-x="262" d="M228 373h-61v38q-7 -22 -26.5 -33t-44.5 -11q-23 0 -40 17t-17 40q0 33 24 48q12 7 52 17q14 3 23 5.5t24 9.5l8 4v32q0 20 -8 32.5t-30 15.5q-17 2 -27 -6.5t-24 -40.5l-11 -28h-9v67q17 9 37.5 12.5t21.5 3.5h16q45 0 60 -23q11 -16 11 -52v-140h21v-8zM242 293h-217 v29h217v-29zM170 476v21l-20 -8q-28 -10 -55 -19q-17 -10 -17 -45q-2 -19 7.5 -32.5t29.5 -13.5q22 0 36.5 19t17.5 44z" />
<glyph unicode="&#xab;" horiz-adv-x="443" d="M421 320l-123 -89l120 -84l-1 -89l-171 134v84l175 129v-85zM202 320l-123 -89l121 -84l-1 -89l-171 134v84l174 129v-85z" />
<glyph unicode="&#xac;" horiz-adv-x="645" d="M621 0h-50v206h-546v47h596v-253z" />
<glyph unicode="&#xae;" horiz-adv-x="641" d="M323 0q-141 0 -223 93q-74 83 -74 205q0 120 73 203q82 93 222 93t223 -93q75 -84 75 -205q0 -120 -74 -203q-83 -93 -222 -93zM322 30q125 0 199 83q66 74 66 183q0 108 -66 183q-73 83 -199 83q-125 0 -197 -82q-66 -75 -66 -183q0 -107 66 -183q73 -84 197 -84z M482 133h-4l-25 1l-28 -1h-7l-130 167l2 8h16q36 0 63.5 20t24.5 51q0 53 -53 61q-14 2 -21 2q-12 0 -22.5 -1.5t-17.5 -3.5l-8 -2v-261q3 -16 6 -19q7 -7 25 -7l13 -1v-13h-7l-58 2l-59 -2h-8l-1 14h13q19 0 25.5 7t4.5 19l1 244q0 15 -6 21q-3 4 -14 5t-17 2h-5v13h7 l59 -1l88 1l6 2q30 0 55.5 -11.5t35.5 -36.5q5 -13 5 -28q0 -41 -43 -70q-9 -7 -22.5 -11.5t-22.5 -5.5l-4 -1l105 -139l13 -8q2 -2 9 -3h4z" />
<glyph unicode="&#xb0;" horiz-adv-x="157" d="M138 538q0 -24 -17 -42t-41 -18q-23 0 -40 18t-17 41t17 39t41 16q22 0 39.5 -16.5t17.5 -37.5zM116 539q0 14 -11 23t-26 9q-14 0 -25 -11t-11 -24q0 -15 10.5 -26.5t25.5 -11.5q16 0 26.5 11.5t10.5 29.5z" />
<glyph unicode="&#xb1;" horiz-adv-x="377" d="M351 243h-145l1 -145h-39v145h-145v42h146v145h40v-146h141zM349 0h-331v28h330z" />
<glyph unicode="&#xb4;" horiz-adv-x="216" d="M198 548q-17 -14 -42 -28q-15 -9 -36 -17q-13 -5 -39.5 -10t-50.5 -5l-6 30q27 0 40 4t30.5 12t38.5 23q32 23 41 34z" />
<glyph unicode="&#xb5;" horiz-adv-x="490" d="M474 86l-7 -28q-8 -34 -42.5 -55t-62.5 -18q-29 4 -53 28t-24 55l-21 -22q-28 -27 -57.5 -42.5t-54.5 -15.5q-22 0 -51.5 12t-48.5 35l1 -30q0 -25 15 -65t15 -74q0 -23 -10.5 -40t-29.5 -17q-18 0 -30 15.5t-12 36.5q0 32 9 61q13 43 14.5 56.5t2.5 21.5v432h75v-279 q0 -60 20.5 -85.5t60.5 -25.5q34 0 69.5 28t35.5 63v299h72v-328q0 -36 13 -60.5t38 -20.5q16 3 26.5 15.5t14.5 28.5l5 19h17z" />
<glyph unicode="&#xb6;" horiz-adv-x="511" d="M491 570h-9q-14 0 -27.5 -1.5t-21.5 -6.5q-13 -9 -18 -18.5t-7 -27.5v-551q0 -15 3.5 -24t11.5 -14.5t21.5 -9t24.5 -3.5l19 -1l-2 -21h-16l-150 2l-161 -2h-13l1 22l20 1q12 0 26.5 4t22.5 14q12 15 12 33v335h-8q-14 0 -46.5 9t-68.5 28t-58 55.5t-22 78.5q0 20 8 44 q17 44 59 67q34 18 71 18q42 0 72 -2q103 -7 117 -7l128 3h11v-25zM228 335v227l-9 1q-33 0 -58 -17q-40 -27 -40 -87q-4 -44 24 -79t75 -44zM346 -75v637h-53v-637h53z" />
<glyph unicode="&#xb7;" horiz-adv-x="134" d="M67 265q-21 0 -33 13t-12 32t11.5 32t33.5 13t33.5 -13t11.5 -32t-11.5 -32t-33.5 -13z" />
<glyph unicode="&#xba;" horiz-adv-x="234" d="M214 484q0 -53 -28 -84.5t-65 -31.5q-43 0 -67.5 36t-24.5 84q0 59 32 88q25 23 60 23q46 0 72 -39q21 -32 21 -76zM214 296h-189v24h189v-24zM171 494q0 41 -8 63q-12 32 -42 32q-39 0 -46 -56q-3 -24 -3 -58q0 -49 10.5 -73.5t43.5 -24.5q31 0 40 40q5 21 5 77z" />
<glyph unicode="&#xbb;" horiz-adv-x="445" d="M421 276l-1 -84l-171 -134v89l120 84l-123 89v85zM202 192l-171 -134v89l121 84l-124 89l1 85l173 -129v-84z" />
<glyph unicode="&#xbf;" horiz-adv-x="353" d="M245 413q0 -20 -15 -35t-35 -15q-21 0 -35 15t-14 36q0 20 15 34t35 14t34.5 -14.5t14.5 -34.5zM338 -109l-31 -16q-27 -14 -59.5 -21t-63.5 -7q-63 0 -108 36q-49 39 -49 101q0 39 19 70q14 22 49 56q60 57 68 66q30 36 30 76v15h22v-15q0 -33 -11 -58t-33 -56 q-29 -38 -39 -69.5t-10 -87.5q0 -50 8 -71q16 -43 65 -43q44 0 69 36q16 23 32 78l23 77h19v-167z" />
<glyph unicode="&#xc0;" horiz-adv-x="567" d="M357 667l-6 -30q-23 0 -49 4.5t-43.5 11.5t-32.5 16q-24 13 -42 29l24 42q4 -5 29 -24q30 -23 48 -32t31.5 -13t40.5 -4zM550 -1h-195v18h66l-72 220h-177l-71 -219h76v-19h-149v18h50l187 577h54l196 -577h35v-18zM343 257l-85 251l-80 -251h165z" />
<glyph unicode="&#xc1;" horiz-adv-x="564" d="M545 0h-195v17h66l-72 220h-177l-71 -220h76v-17h-149v17h50l187 573h54l196 -573h35v-17zM338 257l-85 247l-80 -247h165zM382 696q-17 -14 -42 -28q-15 -9 -36 -17q-13 -5 -39.5 -10t-50.5 -5l-6 30q27 0 40 4t30.5 12t38.5 23q32 23 41 34z" />
<glyph unicode="&#xc2;" horiz-adv-x="564" d="M545 0h-195v17h66l-72 220h-177l-71 -220h76v-17h-149v17h50l187 573h54l196 -573h35v-17zM338 257l-85 247l-80 -247h165zM408 636q-12 0 -24 2t-30.5 7t-31.5 10t-32 14q-13 -6 -33 -13.5t-31.5 -10.5t-25.5 -6t-31 -5v33q19 5 33.5 10.5t30 16.5t30.5 22t28 26 q17 -18 37 -33q15 -11 28 -18q25 -14 52 -22v-33z" />
<glyph unicode="&#xc3;" horiz-adv-x="567" d="M448 693q-12 -19 -35 -36q-30 -22 -58 -22q-23 0 -50 12q-60 27 -72 27q-15 0 -29 -7q-8 -4 -26 -17l-13 13q18 26 41 41.5t47 15.5q28 0 81 -25q25 -12 48 -12q16 0 28 8q14 12 22 18zM551 -1h-195v18h66l-72 220h-177l-71 -219h76v-19h-149v18h50l187 577h55l195 -577 h35v-18zM344 257l-85 251l-80 -251h165z" />
<glyph unicode="&#xc4;" horiz-adv-x="573" d="M416 682q0 -19 -13.5 -33.5t-32.5 -14.5q-20 0 -34.5 16.5t-11.5 36.5q2 16 16.5 26.5t31.5 10.5t30.5 -12.5t13.5 -29.5zM271 679q0 -18 -13.5 -31.5t-31.5 -13.5t-32 15t-14 35q1 17 15 27.5t33 10.5q17 0 30 -13t13 -30zM555 -1h-195v18h66l-72 220h-177l-71 -219h76 v-19h-149v18h50l187 577h54l196 -577h35v-18zM348 257l-85 251l-80 -251h165z" />
<glyph unicode="&#xc5;" horiz-adv-x="569" d="M346 694q0 -23 -17 -41t-41 -18q-23 0 -40 17t-17 41t17 40t43 16q22 0 38.5 -16.5t16.5 -38.5zM549 -1h-195v18h66l-72 220h-177l-71 -219h76v-19h-149v18h50l187 577h54l196 -577h35v-18zM324 695q0 15 -11 24t-26 9q-14 0 -25 -11t-11 -25q0 -15 10.5 -26.5 t25.5 -11.5q16 0 26.5 11.5t10.5 29.5zM342 257l-85 251l-80 -251h165z" />
<glyph unicode="&#xc6;" horiz-adv-x="875" d="M824 -1h-450l7 21h60v219h-177l-143 -220h76l-5 -19h-149l6 18h50l371 574h346v-187h-19l-24 84q-7 25 -16.5 45.5t-19.5 27.5t-25 10t-34 3h-152v-251h57h17q19 0 32 12q19 17 27 49l14 49h18v-248h-17l-10 35q-8 27 -14 42q-9 22 -16 27.5t-17.5 8.5t-20.5 3h-70v-282 h138q51 0 70.5 18.5t41.5 82.5q8 25 17 50q3 9 7 32l4 19h20v-223zM440 259v247l-165 -247h165z" />
<glyph unicode="&#xc7;" horiz-adv-x="466" d="M446 25q-28 -13 -68 -24t-79 -11q-21 0 -33 2t-23 3l-12 -20l24 -10q8 -2 19.5 -14.5t11.5 -24.5q0 -14 -13.5 -22.5t-32.5 -8.5q-25 0 -39 14l-27 25l36 -13q8 -3 17 -3q18 0 24 12q6 14 -8.5 29t-28.5 8l17 31q-107 40 -156.5 115.5t-49.5 186.5q0 127 65 213 q72 95 200 95q44 0 81.5 -9.5t68.5 -26.5v-165h-17l-18 55q-20 64 -31 80q-32 48 -95 48q-74 0 -112 -58q-46 -70 -46 -236q0 -124 20 -183q31 -93 117 -104q16 -2 23 -2q70 0 105 66q13 24 25 77l15 66h20v-191z" />
<glyph unicode="&#xc8;" horiz-adv-x="488" d="M462 0h-438v17h54v555h-56v18h432v-187h-19l-24 84q-7 25 -16.5 45.5t-19 27t-26 9.5t-32.5 3h-153v-255h57h14q10 0 18 2.5t17 10.5q19 17 27 49l14 53h18v-252h-17l-10 35q-10 35 -17.5 51.5t-13.5 21.5q-13 10 -31 10h-76v-281h138q52 0 71 17t41 81q8 25 17 50 q3 9 7 32l4 19h20v-216zM357 665l-6 -31q-24 0 -50 5t-42.5 12t-33.5 16q-24 13 -42 28l24 42q5 -6 29 -24q30 -23 49 -31.5t32 -12.5t40 -4z" />
<glyph unicode="&#xc9;" horiz-adv-x="481" d="M348 698q-17 -15 -42 -29q-14 -8 -36 -17q-13 -5 -39.5 -10t-50.5 -5l-6 30q27 0 40 4t33.5 13.5t47.5 30.5q22 17 29 25zM464 0h-438v17h54v555h-56v18h432v-187h-19l-24 84q-7 25 -16.5 45.5t-19.5 27.5t-25 10t-34 3h-152v-255h57h17q19 0 32 12q19 17 27 49l14 53h18 v-252h-17l-10 35q-8 27 -14 42q-9 22 -17 28q-13 10 -31 10h-76v-278h138q52 0 71 17t41 81q8 25 17 50q3 9 7 32l4 19h20v-216z" />
<glyph unicode="&#xca;" horiz-adv-x="488" d="M462 0h-438v17h54v555h-56v18h432v-187h-19l-24 84q-7 25 -16.5 45.5t-19 27t-26 9.5t-32.5 3h-153v-255h57h14q10 0 18 2.5t17 10.5q19 17 27 49l14 53h18v-252h-17l-10 35q-10 35 -17.5 51.5t-13.5 21.5q-13 10 -31 10h-76v-281h138q52 0 71 17t41 81q8 25 17 50 q3 9 7 32l4 19h20v-216zM372 636q-12 0 -24 2t-30.5 7t-31.5 10t-32 14q-13 -6 -33 -13.5t-31.5 -10.5t-25.5 -6t-31 -5v33q19 5 33.5 10.5t30 16.5t30.5 22t28 26q17 -18 37 -33q15 -11 28 -18q25 -14 52 -22v-33z" />
<glyph unicode="&#xcb;" horiz-adv-x="484" d="M462 0h-438v17h54v555h-56v18h432v-187h-19l-24 84q-7 25 -16.5 45.5t-19 27t-26 9.5t-32.5 3h-153v-255h57h14q10 0 18 2.5t17 10.5q19 17 27 49l14 53h18v-252h-17l-10 35q-10 35 -17.5 51.5t-13.5 21.5q-13 10 -31 10h-76v-281h138q52 0 71 17t41 81q8 25 17 50 q3 9 7 32l4 19h20v-216zM381 685q0 -19 -13.5 -33.5t-32.5 -14.5q-20 0 -34 16.5t-11 36.5q2 17 15.5 27t31.5 10q17 0 30.5 -12.5t13.5 -29.5zM236 682q0 -18 -13.5 -31.5t-31.5 -13.5t-32 15t-14 35q1 17 15 27.5t33 10.5q17 0 30 -13t13 -30z" />
<glyph unicode="&#xcc;" horiz-adv-x="252" d="M227 572h-54v-555h50v-17h-196v17h54v555h-51v18h197v-18zM221 661l-6 -31q-24 0 -50 5t-42.5 12t-33.5 16q-24 13 -42 28l24 42q5 -6 29 -24q30 -23 49 -31.5t32 -12.5t40 -4z" />
<glyph unicode="&#xcd;" horiz-adv-x="252" d="M227 572h-54v-555h50v-17h-196v17h54v555h-51v18h197v-18zM218 696q-17 -14 -42 -28q-15 -9 -36 -17q-13 -5 -39.5 -10t-50.5 -5l-6 30q27 0 40 4t30.5 12t38.5 23q32 23 41 34z" />
<glyph unicode="&#xce;" horiz-adv-x="252" d="M227 572h-54v-555h50v-17h-196v17h54v555h-51v18h197v-18zM248 636q-12 0 -24 2t-30.5 7t-31.5 10t-32 14q-13 -6 -33 -13.5t-31.5 -10.5t-25.5 -6t-31 -5v33q19 5 33.5 10.5t30 16.5t30.5 22t28 26q17 -18 37 -33q15 -11 28 -18q25 -14 52 -22v-33z" />
<glyph unicode="&#xcf;" horiz-adv-x="252" d="M227 572h-54v-555h50v-17h-196v17h54v555h-51v18h197v-18zM245 685q0 -19 -13.5 -33.5t-32.5 -14.5q-20 0 -34 16.5t-11 36.5q2 17 15.5 27t31.5 10q17 0 30.5 -12.5t13.5 -29.5zM100 682q0 -18 -13.5 -31.5t-31.5 -13.5t-32 15t-14 35q1 17 15 27.5t33 10.5q17 0 30 -13 t13 -30z" />
<glyph unicode="&#xd1;" horiz-adv-x="540" d="M423 690q-12 -18 -35 -35q-30 -22 -58 -22q-23 0 -50 12q-60 27 -72 27q-15 0 -29 -7q-8 -4 -26 -17l-13 13q18 25 41.5 41t46.5 16q27 0 53 -12q57 -26 76 -26q14 0 22 4q4 2 28 23zM521 580h-48v-577h-26l-341 564v-546h77v-20h-151v20h52v555h-56v18h162l258 -428v413 h-71v18h144v-17z" />
<glyph unicode="&#xd2;" horiz-adv-x="544" d="M511 298q0 -127 -59 -212q-68 -97 -189 -97q-105 0 -173 102q-62 93 -62 219q0 118 64 204q70 94 178 94q116 0 182 -98q59 -87 59 -212zM409 303q0 135 -17 190q-30 99 -123 99q-107 0 -130 -154q-8 -54 -8 -157q0 -125 18 -181q30 -93 117 -93q85 0 118 91 q25 68 25 205zM357 665l-6 -31q-24 0 -50 5t-42.5 12t-33.5 16q-24 13 -42 28l24 42q5 -6 29 -24q30 -23 49 -31.5t32 -12.5t40 -4z" />
<glyph unicode="&#xd3;" horiz-adv-x="536" d="M511 298q0 -127 -59 -212q-68 -97 -189 -97q-105 0 -173 102q-62 93 -62 219q0 118 64 204q70 94 178 94q116 0 182 -98q59 -87 59 -212zM409 303q0 135 -17 190q-30 99 -123 99q-107 0 -130 -154q-8 -54 -8 -157q0 -125 18 -181q30 -93 117 -93q85 0 118 91 q25 68 25 205zM358 696q-17 -14 -42 -28q-15 -9 -36 -17q-13 -5 -39.5 -10t-50.5 -5l-6 30q27 0 40 4t30.5 12t38.5 23q32 23 41 34z" />
<glyph unicode="&#xd4;" horiz-adv-x="536" d="M511 298q0 -127 -59 -212q-68 -97 -189 -97q-105 0 -173 102q-62 93 -62 219q0 118 64 204q70 94 178 94q116 0 182 -98q59 -87 59 -212zM409 303q0 135 -17 190q-30 99 -123 99q-107 0 -130 -154q-8 -54 -8 -157q0 -125 18 -181q30 -93 117 -93q85 0 118 91 q25 68 25 205zM404 636q-12 0 -24 2t-30.5 7t-31.5 10t-32 14q-13 -6 -33 -13.5t-31.5 -10.5t-25.5 -6t-31 -5v33q19 5 33.5 10.5t30 16.5t30.5 22t28 26q17 -18 37 -33q15 -11 28 -18q25 -14 52 -22v-33z" />
<glyph unicode="&#xd5;" horiz-adv-x="530" d="M417 693q-12 -19 -35 -36q-30 -22 -58 -22q-23 0 -50 12q-60 27 -72 27q-15 0 -29 -7q-8 -4 -26 -17l-13 13q18 26 41 41.5t47 15.5q27 0 53 -12q57 -26 76 -26q17 0 29.5 10.5t20.5 16.5zM510 297q0 -127 -59 -211q-68 -97 -189 -97q-105 0 -173 102q-62 93 -62 219 q0 118 66 205q71 93 180 93q115 0 180 -99q57 -87 57 -212zM408 303q0 135 -17 190q-30 99 -123 99q-107 0 -130 -154q-8 -54 -8 -157q0 -125 18 -181q30 -93 117 -93q85 0 118 91q25 68 25 205z" />
<glyph unicode="&#xd6;" horiz-adv-x="526" d="M376 687q0 -20 -13.5 -34.5t-32.5 -14.5q-20 0 -34.5 17t-11.5 37q2 17 15.5 27t32.5 10q17 0 30.5 -12.5t13.5 -29.5zM231 684q0 -18 -13 -32t-32 -14q-18 0 -32 16t-14 35q1 17 15 27.5t33 10.5q17 0 30 -13t13 -30zM506 298q0 -127 -59 -212q-68 -97 -189 -97 q-105 0 -173 102q-62 93 -62 219q0 118 64 204q70 94 178 94q116 0 182 -98q59 -87 59 -212zM404 303q0 135 -17 190q-30 99 -123 99q-107 0 -130 -154q-8 -54 -8 -157q0 -125 18 -181q30 -93 117 -93q85 0 118 91q25 68 25 205z" />
<glyph unicode="&#xd8;" horiz-adv-x="529" d="M511 299q0 -131 -66 -218q-70 -92 -182 -92q-30 0 -60 9.5t-46 22.5l-5 4l-29 -55h-39l41 77l-7 7q-36 36 -62 100q-29 72 -29 142q0 123 64 214q69 98 178 98q36 0 68 -10.5t57 -28.5l8 -6l27 50h39l-40 -74l4 -4q32 -32 55.5 -97t23.5 -139zM380 522l-4 7 q-19 33 -43 48t-64 15q-81 0 -115 -86q-25 -63 -25 -170q0 -76 4.5 -134t14.5 -91l4 -13zM409 271v55q0 27 -1 63t-11 75l-3 12l-224 -417l6 -9q15 -23 39 -33t51 -10q82 0 117 88q26 66 26 176z" />
<glyph unicode="&#xd9;" horiz-adv-x="520" d="M487 572h-48v-402q0 -95 -52 -142q-45 -41 -123 -41q-90 0 -137 48t-47 136v401h-51v18h200v-18h-61v-387q0 -93 26 -132.5t83 -39.5q68 0 100 32q38 38 38 132v395h-73v18h145v-18zM365 665l-6 -31q-24 0 -50 5t-42.5 12t-33.5 16q-24 13 -42 28l24 42q5 -6 29 -24 q30 -23 49 -31.5t32 -12.5t40 -4z" />
<glyph unicode="&#xda;" horiz-adv-x="516" d="M487 572h-48v-402q0 -95 -52 -142q-45 -41 -123 -41q-90 0 -137 48t-47 136v401h-51v18h200v-18h-61v-387q0 -93 26 -132.5t83 -39.5q68 0 100 32q38 38 38 132v395h-73v18h145v-18zM366 696q-17 -14 -42 -28q-15 -9 -36 -17q-13 -5 -39.5 -10t-50.5 -5l-6 30q27 0 40 4 t30.5 12t38.5 23q32 23 41 34z" />
<glyph unicode="&#xdb;" horiz-adv-x="516" d="M487 572h-48v-402q0 -95 -52 -142q-45 -41 -123 -41q-90 0 -137 48t-47 136v401h-51v18h200v-18h-61v-387q0 -93 26 -132.5t83 -39.5q68 0 100 32q38 38 38 132v395h-73v18h145v-18zM400 636q-12 0 -24 2t-30.5 7t-31.5 10t-32 14q-13 -6 -33 -13.5t-31.5 -10.5t-25.5 -6 t-31 -5v33q19 5 33.5 10.5t30 16.5t30.5 22t28 26q17 -18 37 -33q15 -11 28 -18q25 -14 52 -22v-33z" />
<glyph unicode="&#xdc;" horiz-adv-x="501" d="M386 683q0 -20 -13.5 -34.5t-32.5 -14.5q-20 0 -34.5 16.5t-11.5 37.5q2 17 15.5 27t32.5 10q17 0 30.5 -12.5t13.5 -29.5zM241 679q0 -18 -13.5 -31.5t-31.5 -13.5q-19 0 -32.5 15.5t-13.5 35.5q1 17 15 27.5t33 10.5q17 0 30 -13t13 -31zM481 578h-48v-406 q0 -95 -52 -142q-45 -41 -123 -41q-91 0 -137.5 48.5t-46.5 135.5v400h-51v20h200v-17h-61v-389q0 -93 26 -132.5t83 -39.5q68 0 100 32q38 38 38 132v399h-74v17h146v-17z" />
<glyph unicode="&#xdf;" d="M419 178q0 -76 -47 -133.5t-119 -57.5q-37 0 -77 25l10 16q28 -20 53 -20q54 0 77 47q20 41 20 123q0 71 -16 106q-31 67 -119 67l-15 1v18q61 0 88 34q21 27 21 79q0 49 -19.5 77t-57.5 28q-41 0 -60.5 -24t-19.5 -61v-504h-118v16h43v435q0 81 46 121q40 35 109 35 q61 0 106 -31.5t45 -84.5q0 -43 -28 -75t-71 -45l-26 -8l34 -8q63 -14 102 -62.5t39 -113.5z" />
<glyph unicode="&#xe0;" horiz-adv-x="425" d="M311 527l-6 -30q-23 0 -49 4.5t-41.5 11t-34.5 16.5q-26 14 -43 28l24 42q5 -6 29 -24q30 -22 49 -31t32 -13t40 -4zM404 0h-122v77q-14 -43 -53.5 -66t-88.5 -23q-47 0 -81 34t-34 81q0 77 71 106q20 8 81 24l46 11.5t49 18.5l15 7v64q0 42 -13 65q-18 31 -60 31 q-11 1 -15 1q-36 0 -58 -30q-12 -16 -31 -64l-22 -56h-18v134q19 8 38 14.5t37 9.5t36.5 5t37.5 2q89 0 121 -47q22 -32 22 -103v-279h42v-17zM287 207v41l-40 -15q-55 -20 -110 -39q-34 -20 -34 -83q0 -42 18.5 -70t55.5 -28q44 0 75 41q27 36 33 85q2 15 2 35v33z" />
<glyph unicode="&#xe1;" horiz-adv-x="422" d="M304 555q-18 -15 -42 -29q-17 -10 -37 -18q-32 -13 -89 -13l-6 30q27 0 40 4t32.5 13t45.5 28.5t32 26.5zM404 0h-122v77q-14 -43 -53.5 -66t-88.5 -23q-47 0 -81 34t-34 81q0 77 71 106q20 8 81 24l46 11.5t49 18.5l15 7v64q0 42 -13 65q-18 31 -60 31q-11 1 -15 1 q-36 0 -58 -30q-12 -16 -31 -64l-22 -56h-18v134q19 8 38 14.5t37 9.5t36.5 5t37.5 2q89 0 121 -47q22 -32 22 -103v-279h42v-17zM287 207v41l-40 -15q-55 -20 -110 -39q-34 -20 -34 -83q0 -42 18.5 -70t55.5 -28q44 0 75 41q27 36 33 85q2 15 2 35v33z" />
<glyph unicode="&#xe2;" horiz-adv-x="421" d="M339 500q-14 0 -26.5 2.5t-37 9t-55.5 21.5q-22 -9 -34 -14t-26.5 -8.5t-27.5 -7t-33 -5.5v33q20 5 34.5 10.5t29.5 16.5l30 22t28 26q17 -18 37 -33q15 -11 28 -18q25 -14 53 -22v-33zM404 0h-122v77q-14 -43 -53.5 -66t-88.5 -23q-47 0 -81 34t-34 81q0 77 71 106 q20 8 81 24l46 11.5t49 18.5l15 7v64q0 42 -13 65q-18 31 -60 31q-11 1 -15 1q-36 0 -58 -30q-12 -16 -31 -64l-22 -56h-18v134q19 8 38 14.5t37 9.5t36.5 5t37.5 2q89 0 121 -47q22 -32 22 -103v-279h42v-17zM287 207v41l-40 -15q-55 -20 -110 -39q-34 -20 -34 -83 q0 -42 18.5 -70t55.5 -28q44 0 75 41q27 36 33 85q2 15 2 35v33z" />
<glyph unicode="&#xe3;" horiz-adv-x="425" d="M362 554q-12 -19 -33 -35q-29 -23 -56 -23q-26 0 -67 20t-59 20q-15 0 -29 -7q-8 -4 -26 -17l-13 13q19 26 41.5 41t47.5 15q29 0 81 -25q25 -12 47 -12q16 0 28 8q14 12 22 18zM404 0h-122v77q-14 -43 -53.5 -66t-88.5 -23q-47 0 -81 34t-34 81q0 77 71 106q20 8 81 24 l46 11.5t49 18.5l15 7v64q0 42 -13 65q-18 31 -60 31q-11 1 -15 1q-36 0 -58 -30q-12 -16 -31 -64l-22 -56h-18v134q19 8 38 14.5t37 9.5t36.5 5t37.5 2q89 0 121 -47q22 -32 22 -103v-279h42v-17zM287 207v41l-40 -15q-55 -20 -110 -39q-34 -20 -34 -83q0 -42 18.5 -70 t55.5 -28q44 0 75 41q27 36 33 85q2 15 2 35v33z" />
<glyph unicode="&#xe4;" horiz-adv-x="422" d="M330 545q0 -19 -13.5 -33.5t-32.5 -14.5q-20 0 -34 16.5t-11 36.5q2 17 15.5 27t31.5 10q17 0 30.5 -12.5t13.5 -29.5zM186 542q0 -18 -13.5 -31.5t-31.5 -13.5q-19 0 -33 15t-14 35q2 17 16 27.5t33 10.5q17 0 30 -13t13 -30zM404 0h-122v77q-14 -43 -53.5 -66 t-88.5 -23q-47 0 -81 34t-34 81q0 77 71 106q20 8 81 24l46 11.5t49 18.5l15 7v64q0 42 -13 65q-18 31 -60 31q-11 1 -15 1q-36 0 -58 -30q-12 -16 -31 -64l-22 -56h-18v134q19 8 38 14.5t37 9.5t36.5 5t37.5 2q89 0 121 -47q22 -32 22 -103v-279h42v-17zM287 207v41 l-40 -15q-55 -20 -110 -39q-34 -20 -34 -83q0 -42 18.5 -70t55.5 -28q44 0 75 41q27 36 33 85q2 15 2 35v33z" />
<glyph unicode="&#xe5;" horiz-adv-x="425" d="M277 563q0 -24 -17 -42t-40 -18t-40 18t-17 41t17 39t43 16q22 0 38 -16t16 -38zM256 565q0 14 -11 23t-26 9q-14 0 -25 -11t-11 -24q0 -16 10.5 -27.5t25.5 -11.5t26 12t11 30zM404 0h-122v77q-14 -43 -53.5 -66t-88.5 -23q-47 0 -81 34t-34 81q0 77 71 106q20 8 81 24 l46 11.5t49 18.5l15 7v64q0 42 -13 65q-18 31 -60 31q-11 1 -15 1q-36 0 -58 -30q-12 -16 -31 -64l-22 -56h-18v134q19 8 38 14.5t37 9.5t36.5 5t37.5 2q89 0 121 -47q22 -32 22 -103v-279h42v-17zM287 207v41l-40 -15q-55 -20 -110 -39q-34 -20 -34 -83q0 -42 18.5 -70 t55.5 -28q44 0 75 41q27 36 33 85q2 15 2 35v33z" />
<glyph unicode="&#xe6;" horiz-adv-x="660" d="M622 162l-1 -14q0 -64 -43 -112t-106 -48t-113 38t-59 99l-16 -48q-14 -43 -54.5 -66t-89.5 -23q-47 0 -81 34t-34 81q0 77 71 106q20 8 81 24l46 11.5t49 18.5l15 7v64q0 42 -13 65q-18 31 -60 31q-11 1 -15 1q-36 0 -58 -30q-12 -16 -31 -64l-22 -56h-18v134 q19 8 38 14.5t37 9.5t36.5 5t37.5 2q52 0 84 -17q27 -14 43 -42q23 28 54.5 45t65.5 17q67 0 113 -53q43 -50 43 -118q0 -11 -1 -17h-250v-51q0 -91 20 -139q26 -62 87 -62q54 0 91 48q33 43 33 93l1 12h19zM537 280l-1 47q0 42 -17 70q-20 33 -57 33q-31 0 -54 -29t-29 -67 l-8 -54h166zM287 207v41l-40 -15q-55 -20 -110 -39q-34 -20 -34 -83q0 -42 18.5 -70t55.5 -28q44 0 75 41q27 36 33 85q2 15 2 35v33z" />
<glyph unicode="&#xe7;" horiz-adv-x="371" d="M356 160l-3 -22q-11 -86 -51 -118q-24 -15 -31 -20q-14 -9 -22 -9l-22 -2l-12 -30l22 -9q7 -2 17.5 -13.5t10.5 -22.5q0 -14 -11.5 -21t-28.5 -7q-22 0 -37 13l-25 23l33 -12q8 -3 16 -3q15 0 21 11q6 12 -7.5 26t-25.5 8l5 10l11 28l-7 -1q-7 -1 -19 -1q-72 0 -119 75 q-43 69 -43 156q0 92 52 159q56 72 140 72q34 0 65.5 -5.5t62.5 -23.5v-152h-19l-9 36q-18 68 -39 97.5t-56 29.5q-49 0 -77 -44q-34 -54 -34 -175q0 -115 31 -161q28 -41 81 -41q44 0 72 33.5t35 83.5l5 32h18z" />
<glyph unicode="&#xe8;" horiz-adv-x="380" d="M288 527l-6 -30q-23 0 -49 4.5t-41.5 11t-34.5 16.5q-26 14 -43 28l24 42q14 -14 41 -33q20 -15 38 -23t31 -12t40 -4zM364 162l-1 -14q0 -64 -43 -112t-106 -48q-80 0 -132.5 66.5t-52.5 167.5q0 93 51.5 160t127.5 67q67 0 113 -53q43 -50 43 -118q0 -11 -1 -17h-250 v-51q0 -91 20 -139q26 -62 87 -62q54 0 91 48q33 43 33 93l1 12h19zM279 280l-1 47q0 42 -17 70q-20 33 -57 33q-31 0 -54 -29t-29 -67l-8 -54h166z" />
<glyph unicode="&#xe9;" horiz-adv-x="373" d="M285 557q-17 -14 -43 -28q-16 -9 -36 -17q-13 -5 -38.5 -10t-50.5 -5l-6 30q27 0 40 4t33.5 13.5t44.5 28t31 26.5zM364 162l-1 -14q0 -64 -43 -112t-106 -48q-80 0 -132.5 66.5t-52.5 167.5q0 93 51.5 160t127.5 67q67 0 113 -53q43 -50 43 -118q0 -11 -1 -17h-250v-51 q0 -91 20 -139q26 -62 87 -62q54 0 91 48q33 43 33 93l1 12h19zM279 280l-1 47q0 42 -17 70q-20 33 -57 33q-31 0 -54 -29t-29 -67l-8 -54h166z" />
<glyph unicode="&#xea;" horiz-adv-x="377" d="M313 498q-14 0 -26.5 2.5t-37 9t-55.5 21.5q-22 -9 -34 -14t-26.5 -8.5t-27.5 -7t-33 -5.5v33q13 3 25 7q22 7 38 19t31 23t28 26q17 -18 37 -33q15 -11 28 -18q25 -14 53 -22v-33zM364 162l-1 -14q0 -64 -43 -112t-106 -48q-80 0 -132.5 66.5t-52.5 167.5q0 93 51.5 160 t127.5 67q67 0 113 -53q43 -50 43 -118q0 -11 -1 -17h-250v-51q0 -91 20 -139q26 -62 87 -62q54 0 91 48q33 43 33 93l1 12h19zM279 280l-1 47q0 42 -17 70q-20 33 -57 33q-31 0 -54 -29t-29 -67l-8 -54h166z" />
<glyph unicode="&#xeb;" horiz-adv-x="381" d="M329 548q0 -19 -14 -34t-33 -15q-20 0 -34 17t-11 37q2 17 15.5 27t31.5 10q16 0 30.5 -12.5t14.5 -29.5zM184 545q0 -18 -13 -32t-32 -14t-33 16t-14 35q2 17 16 27.5t33 10.5q17 0 30 -13t13 -30zM364 162l-1 -14q0 -64 -43 -112t-106 -48q-80 0 -132.5 66.5 t-52.5 167.5q0 93 51.5 160t127.5 67q67 0 113 -53q43 -50 43 -118q0 -11 -1 -17h-250v-51q0 -91 20 -139q26 -62 87 -62q54 0 91 48q33 43 33 93l1 12h19zM279 280l-1 47q0 42 -17 70q-20 33 -57 33q-31 0 -54 -29t-29 -67l-8 -54h166z" />
<glyph unicode="&#xec;" horiz-adv-x="216" d="M200 527l-6 -30q-23 0 -49 4.5t-43 11.5t-34 16q-24 13 -42 28l24 42q5 -6 29 -24q30 -23 49 -31.5t32 -12.5t40 -4zM202 0h-165v19h46v398h-43v18h121v-416h41v-19z" />
<glyph unicode="&#xed;" horiz-adv-x="213" d="M198 557q-16 -13 -42 -28q-21 -12 -35 -17.5t-40.5 -10.5t-50.5 -5l-6 31q27 0 40 4t33.5 13.5t47.5 29.5q22 16 29 25zM197 0h-165v19h46v398h-43v18h121v-416h41v-19z" />
<glyph unicode="&#xee;" horiz-adv-x="212" d="M226 498q-13 0 -26 2.5t-29 7t-25 7t-39 16.5q-22 -9 -35 -14.5t-26.5 -9t-27.5 -6.5t-31 -5v33q19 5 33.5 10.5t29.5 16.5l30 22t28 26q9 -9 18 -17t22 -17.5t26 -16.5q25 -14 52 -22v-33zM187 0h-165v19h46v398h-43v18h121v-416h41v-19z" />
<glyph unicode="&#xef;" horiz-adv-x="210" d="M222 546q0 -20 -14.5 -35.5t-33.5 -15.5q-17 0 -29 15t-12 33q0 20 12.5 32.5t36.5 12.5q18 0 29 -12t11 -30zM75 551q5 -20 -9.5 -38t-35.5 -18q-18 0 -31 16t-13 35q1 16 15 27t31 11q15 0 27.5 -9.5t15.5 -23.5zM189 0h-165v19h46v398h-43v18h121v-416h41v-19z" />
<glyph unicode="&#xf1;" horiz-adv-x="436" d="M363 554q-13 -19 -35 -35q-31 -22 -59 -22q-22 0 -49 12q-60 27 -72 27q-20 0 -36 -10q-4 -2 -20 -14l-13 13q19 26 41.5 41t47.5 15q29 0 81 -25q25 -12 47 -12q16 0 29 8q14 12 22 18zM417 -1h-168v18h51v336q0 28 -16.5 48t-41.5 20q-48 0 -73 -48q-21 -41 -21 -105 v-251h54v-18h-176v18h47v399h-47v19h118v-75q10 38 44.5 61.5t69.5 23.5q55 0 84 -25q34 -29 34 -97v-306h41v-18z" />
<glyph unicode="&#xf2;" horiz-adv-x="412" d="M299 529l-6 -30q-23 0 -49 4.5t-41.5 11t-34.5 16.5q-26 14 -43 28l24 42q14 -14 41 -33q20 -15 38 -23t31 -12t40 -4zM399 223q0 -97 -52.5 -165.5t-133.5 -68.5q-89 0 -140 76q-46 68 -46 165q0 86 43 148q52 74 143 74t143 -79q43 -66 43 -150zM310 246q0 84 -15 125 q-23 63 -83 63q-67 0 -88 -77q-11 -41 -11 -148q0 -96 19 -142q25 -60 88 -60q60 0 79 82q11 48 11 157z" />
<glyph unicode="&#xf3;" horiz-adv-x="418" d="M302 557q-17 -14 -42 -28q-15 -9 -36 -17q-11 -5 -39.5 -10.5t-49.5 -5.5l-6 31q27 0 40 4t33.5 13.5t44.5 28t31 26.5zM399 223q0 -97 -52.5 -165.5t-133.5 -68.5q-89 0 -140 76q-46 68 -46 165q0 86 43 148q52 74 143 74t143 -79q43 -66 43 -150zM310 246q0 84 -15 125 q-23 63 -83 63q-67 0 -88 -77q-11 -41 -11 -148q0 -96 19 -142q25 -60 88 -60q60 0 79 82q11 48 11 157z" />
<glyph unicode="&#xf4;" horiz-adv-x="413" d="M331 498q-14 0 -22 1t-37 9t-60 23q-22 -9 -35 -14.5t-26.5 -9t-27.5 -6.5t-32 -5v33q20 5 34.5 10.5t29.5 16.5l30 22t28 26q17 -18 37 -33q15 -11 28 -18q25 -14 53 -22v-33zM399 223q0 -97 -52.5 -165.5t-133.5 -68.5q-89 0 -140 76q-46 68 -46 165q0 86 43 148 q52 74 143 74t143 -79q43 -66 43 -150zM310 246q0 84 -15 125q-23 63 -83 63q-67 0 -88 -77q-11 -41 -11 -148q0 -96 19 -142q25 -60 88 -60q60 0 79 82q11 48 11 157z" />
<glyph unicode="&#xf5;" horiz-adv-x="417" d="M359 558q-12 -18 -35 -35q-31 -23 -59 -23q-23 0 -49 12q-61 28 -72 28q-15 0 -29 -7q-8 -4 -27 -18l-13 14q19 26 42 41t47 15q28 0 81 -25q25 -12 48 -12q16 0 28 8q14 12 22 18zM399 223q0 -97 -52.5 -165.5t-133.5 -68.5q-89 0 -140 76q-46 68 -46 165q0 86 43 148 q52 74 143 74t143 -79q43 -66 43 -150zM310 246q0 84 -15 125q-23 63 -83 63q-67 0 -88 -77q-11 -41 -11 -148q0 -96 19 -142q25 -60 88 -60q60 0 79 82q11 48 11 157z" />
<glyph unicode="&#xf6;" horiz-adv-x="412" d="M324 545q0 -19 -13.5 -33.5t-32.5 -14.5q-20 0 -34 16.5t-11 36.5q2 16 14.5 24t32.5 13q16 4 30 -9.5t14 -32.5zM180 542q0 -18 -13.5 -31.5t-31.5 -13.5q-19 0 -33 15t-14 35q2 17 16 27.5t33 10.5q17 0 30 -13t13 -30zM399 223q0 -97 -52.5 -165.5t-133.5 -68.5 q-89 0 -140 76q-46 68 -46 165q0 86 43 148q52 74 143 74t143 -79q43 -66 43 -150zM310 246q0 84 -15 125q-23 63 -83 63q-67 0 -88 -77q-11 -41 -11 -148q0 -96 19 -142q25 -60 88 -60q60 0 79 82q11 48 11 157z" />
<glyph unicode="&#xf7;" horiz-adv-x="557" d="M277 326q-25 0 -39.5 16.5t-14.5 38.5t14 38t40 16q25 0 39.5 -16.5t14.5 -38.5t-14 -38t-40 -16zM535 219h-505v57h505v-57zM277 61q-25 0 -39.5 16.5t-14.5 38.5q0 23 14 39t40 16q25 0 39.5 -16.5t14.5 -38.5q0 -23 -14 -39t-40 -16z" />
<glyph unicode="&#xf8;" horiz-adv-x="423" d="M462 428l-73 -83l3 -5q14 -20 22.5 -50.5t8.5 -65.5q0 -100 -45 -169q-51 -78 -139 -78q-31 0 -62 11t-56 36l-7 7l-47 -53h-39l67 77l-5 7q-14 19 -25 53q-15 46 -15 93q0 93 42 157q50 76 139 76q49 0 88 -23q20 -12 47 -39l5 -5l49 54h42zM327 322l-2 12q-7 40 -29 64 t-59 24q-62 0 -85 -72q-15 -47 -15 -131v-31v-21v-23.5t3 -29.5l1 -6zM334 184v33.5t1 25.5v12q-2 9 -2 15l-1 10l-183 -210l3 -10q9 -31 34 -48.5t53 -17.5q53 0 77 64q18 48 18 126z" />
<glyph unicode="&#xf9;" horiz-adv-x="438" d="M304 527l-6 -30q-23 0 -49 4.5t-41.5 11t-34.5 16.5q-26 14 -43 28l24 42q14 -14 41 -33q20 -15 38 -23t31 -12t40 -4zM415 0h-120v62q-15 -34 -45 -53t-69 -19q-65 0 -93 46q-22 36 -22 101v280h-42v18h118v-297q0 -55 11 -83q16 -42 57 -38q47 4 69 54q17 39 17 100 v246h-58v18h135v-418h42v-17z" />
<glyph unicode="&#xfa;" horiz-adv-x="439" d="M313 559q-18 -15 -42 -28q-14 -7 -37 -17q-13 -5 -38.5 -10t-50.5 -5l-6 30q27 0 40 4t32.5 13t45.5 28.5t32 26.5zM415 0h-120v62q-15 -34 -45 -53t-69 -19q-65 0 -93 46q-22 36 -22 101v280h-42v18h118v-297q0 -55 11 -83q16 -42 57 -38q47 4 69 54q17 39 17 100v246 h-58v18h135v-418h42v-17z" />
<glyph unicode="&#xfb;" horiz-adv-x="431" d="M332 497q-12 0 -24 2t-37.5 8.5t-56.5 21.5q-22 -9 -34 -14t-28.5 -9t-28.5 -6.5t-30 -4.5v32q13 3 25 7q22 7 38 19t31 23t28 26q17 -18 37 -33q15 -11 28 -18q25 -14 52 -22v-32zM415 0h-120v62q-15 -34 -45 -53t-69 -19q-65 0 -93 46q-22 36 -22 101v280h-42v18h118 v-297q0 -55 11 -83q16 -42 57 -38q47 4 69 54q17 39 17 100v246h-58v18h135v-418h42v-17z" />
<glyph unicode="&#xfc;" horiz-adv-x="433" d="M331 546q0 -20 -13.5 -34.5t-32.5 -14.5q-20 0 -34 17t-11 37q2 17 15.5 27t31.5 10q17 0 30.5 -12.5t13.5 -29.5zM187 543q0 -18 -13 -32t-32 -14t-33 16t-14 35q2 17 16 27.5t33 10.5q17 0 30 -13t13 -30zM415 0h-120v62q-15 -34 -45 -53t-69 -19q-65 0 -93 46 q-22 36 -22 101v280h-42v18h118v-297q0 -55 11 -83q16 -42 57 -38q47 4 69 54q17 39 17 100v246h-58v18h135v-418h42v-17z" />
<glyph unicode="&#xff;" horiz-adv-x="430" d="M344 550q0 -20 -14.5 -35.5t-34.5 -15.5q-17 0 -29 15t-12 33q0 20 12.5 32.5t37.5 12.5q18 0 29 -12t11 -30zM197 555q5 -20 -9.5 -38t-35.5 -18q-18 0 -31 16t-13 35q1 16 15 27t31 11q15 0 27.5 -9.5t15.5 -23.5zM408 410h-31l-131 -399q-31 -97 -39 -112 q-29 -55 -82 -55q-33 0 -64 22v130h22l19 -68q7 -23 14 -36q13 -25 26 -25q20 0 35 23q10 15 20 46l23 68l-165 404h-33v20h174v-18h-59l118 -293l99 293h-67v20h121v-20z" />
<glyph unicode="&#x152;" horiz-adv-x="847" d="M816 0h-480q-8 -4 -15 -5q-25 -6 -58 -6q-105 0 -173 102q-62 93 -62 219q0 118 64 204q70 94 178 94q37 0 65 -9q9 -3 21 -9h452v-187h-19l-24 84q-7 25 -16.5 45.5t-19.5 27.5t-25 10t-33 3h-153v-255h57h17q19 0 32 12q19 17 27 49l14 53h18v-252h-17l-10 35 q-8 27 -14 42q-9 22 -17 28q-13 10 -31 10h-76v-278h138q52 0 71 17t41 81q8 25 17 50q3 9 7 32l4 19h20v-216zM409 303q0 135 -17 190q-30 99 -123 99q-107 0 -130 -154q-8 -54 -8 -157q0 -125 18 -181q30 -93 117 -93q85 0 118 91q25 68 25 205z" />
<glyph unicode="&#x153;" horiz-adv-x="696" d="M399 223q0 -97 -52.5 -165.5t-133.5 -68.5q-89 0 -140 76q-46 68 -46 165q0 86 43 148q52 74 143 74t143 -79q43 -66 43 -150zM310 246q0 84 -15 125q-23 63 -83 63q-67 0 -88 -77q-11 -41 -11 -148q0 -96 19 -142q25 -60 88 -60q60 0 79 82q11 48 11 157zM648 162 l-1 -14q0 -64 -43 -112t-106 -48q-80 0 -132.5 66.5t-52.5 167.5q0 93 51.5 160t127.5 67q67 0 113 -53q43 -50 43 -118q0 -11 -1 -17h-250v-51q0 -91 20 -139q26 -62 87 -62q54 0 91 48q33 43 33 93l1 12h19zM563 280l-1 47q0 42 -17 70q-20 33 -57 33q-31 0 -54 -29 t-29 -67l-8 -54h166z" />
<glyph unicode="&#x178;" horiz-adv-x="516" d="M482 572h-49l-136 -279v-276h62v-17h-210v17h66v245l-137 310h-50v18h202v-18h-58l111 -260l126 260h-55v18h128v-18zM385 685q0 -19 -13.5 -33.5t-32.5 -14.5q-20 0 -34 16.5t-11 36.5q2 17 15.5 27t31.5 10q17 0 30.5 -12.5t13.5 -29.5zM240 682q0 -18 -13.5 -31.5 t-31.5 -13.5t-32 15t-14 35q1 17 15 27.5t33 10.5q17 0 30 -13t13 -30z" />
<glyph unicode="&#x192;" horiz-adv-x="416" d="M392 635q-11 -32 -43 -32q-7 0 -13 6q-10 10 -14 12q-18 9 -27 -28q-11 -104 -21 -146l-4 -16h81l-3 -35h-88l-50 -248q-17 -89 -45 -154q-43 -98 -98 -98q-8 0 -19 2.5t-18 14.5t-3 24q10 31 38 31q11 0 17.5 -12t10.5 -13q22 -6 39 55q8 28 23 112l56 287h-89l1 35h102 l5 22q18 91 44 146q35 74 80 74q16 0 30 -12.5t8 -26.5z" />
<glyph unicode="&#x3a3;" horiz-adv-x="616" d="M594 87q-9 -28 -13 -44.5t-11 -50.5q-8 -52 -8 -53q-1 -9 -1 -36l-58 12h-476l295 321l-289 364l52 -6h451l1 -132h-17q0 25 -6.5 40t-24.5 30q-16 16 -34.5 20.5t-46.5 4.5h-244l234 -282l-250 -279h334q33 0 54 17q39 29 39 74h19z" />
<glyph unicode="&#x3a9;" horiz-adv-x="648" d="M621 0h-250l12 117q61 27 90.5 77t29.5 119q0 85 -33 127q-43 55 -147 55q-95 0 -141 -54q-40 -47 -40 -128q0 -68 30 -119t91 -77l11 -117h-250v124h14q0 -18 10 -27q13 -22 43 -22h138v24q-83 13 -132 72.5t-49 142.5q0 96 76.5 150t198.5 54q127 0 202 -53.5 t75 -150.5q0 -81 -51 -141.5t-132 -73.5l-1 -24h137q28 0 44 22q9 7 9 27h15v-124z" />
<glyph unicode="&#x3c0;" horiz-adv-x="501" d="M481 138l-4 -20q-5 -47 -37 -82.5t-76 -35.5q-41 0 -59.5 39t-18.5 95v24q2 10 2 14l21 189h-104l-35 -282q-4 -34 -20 -59t-41 -25q-3 0 -14.5 2.5t-20.5 8.5t-11.5 15t-2.5 17q0 17 13 33l42 50q3 8 8.5 21t7.5 24l20 190h-29q-14 1 -21 1q-8 0 -21 -5t-24 -16 q-16 -15 -23 -32l-12 7l3 12q21 46 28 56q17 26 45 40q22 14 56 14h321l-1 -72h-115l-13 -213q0 -30 16 -52.5t42 -22.5q21 0 35.5 14.5t20.5 36.5l4 14h18z" />
<glyph unicode="&#x2013;" horiz-adv-x="337" d="M318 274h-290v29h290v-29z" />
<glyph unicode="&#x2014;" horiz-adv-x="624" d="M603 274h-577v29h577v-29z" />
<glyph unicode="&#x2018;" horiz-adv-x="146" d="M129 598l-21 -14q-11 -7 -16 -12q-5 -4 -23 -27q-8 -9 -10 -17l-2 -8q5 2 14 2q18 0 31 -14t13 -31q0 -18 -14 -31t-30 -13q-24 0 -35 15.5t-11 38.5q0 26 19 57.5t43 47.5l29 20z" />
<glyph unicode="&#x2019;" horiz-adv-x="147" d="M128 552q0 -29 -19.5 -61.5t-43.5 -49.5l-29 -20l-12 14l20 14q11 7 16 12q5 4 23 27q8 9 10 17l2 7q-8 -2 -13 -2q-18 0 -31.5 14.5t-13.5 31.5q0 18 14 31t30 13q24 0 35.5 -15t11.5 -33z" />
<glyph unicode="&#x201a;" horiz-adv-x="147" d="M128 40q0 -29 -19.5 -61.5t-43.5 -49.5l-29 -20l-12 14l20 14q11 7 16 12q5 4 23 27q8 9 10 17l2 7q-8 -2 -13 -2q-18 0 -31.5 14.5t-13.5 31.5q0 18 14 31t30 13q24 0 35.5 -15t11.5 -33z" />
<glyph unicode="&#x201c;" horiz-adv-x="270" d="M258 595l-19 -15q-10 -7 -19 -16.5t-19 -22.5q-6 -8 -12 -25q8 2 13 2q18 0 32 -13t14 -32q0 -18 -15 -31t-32 -13q-24 0 -35 15.5t-11 38.5q0 24 21.5 57t42.5 48l27 20zM136 594l-20 -14q-13 -9 -14 -10q-6 -5 -13.5 -14.5t-9.5 -12.5q-9 -13 -14 -29q10 2 14 2 q17 0 31 -13t14 -30t-14.5 -30.5t-31.5 -13.5q-24 0 -35 15.5t-11 38.5q0 24 21 55.5t46 51.5l24 19z" />
<glyph unicode="&#x201d;" horiz-adv-x="267" d="M251 548q0 -26 -20 -56.5t-45 -49.5l-28 -22l-10 15l18 13q10 8 19.5 18t20.5 23q6 7 11 22q-8 -2 -12 -2q-19 0 -32 14t-13 32t13 31t30 13q24 0 36 -15.5t12 -35.5zM129 552q0 -28 -20 -60.5t-45 -50.5l-29 -22l-9 16l17 13q10 8 19 17t19 22q5 5 7 10q1 1 6 13 q-8 -2 -12 -2q-19 0 -32 14t-13 32t13 31t30 13q24 0 36.5 -14.5t12.5 -31.5z" />
<glyph unicode="&#x201e;" horiz-adv-x="267" d="M251 36q0 -26 -20 -56.5t-45 -49.5l-28 -22l-10 15l18 13q10 7 19.5 17.5t20.5 23.5q6 7 11 22q-8 -2 -12 -2q-19 0 -32 14t-13 32t13 31t30 13q24 0 36 -15.5t12 -35.5zM129 40q0 -28 -20 -60.5t-45 -50.5l-29 -22l-9 16l17 13q10 8 19 17t19 22q5 5 7 10q1 1 6 13 q-8 -2 -12 -2q-19 0 -32 14t-13 32t13 31t30 13q24 0 36.5 -14.5t12.5 -31.5z" />
<glyph unicode="&#x2020;" horiz-adv-x="416" d="M392 332h-5l-73 6l-70 2h-5v-11v-147q0 -42 2 -92t4 -82l1 -8h-6h-33h-31h-5v8l3 174l2 147l-1 11h-4l-70 -2l-74 -6h-5q0 3 1 12t1 21q0 6 -1 18t-1 13l5 3q17 -2 38.5 -3.5t35.5 -1.5h68h5l1 11l-2 74l-11 107l1 8l6 -2h40h36l5 2v-8l-8 -107l-3 -74v-11h5h71 q24 0 41.5 1.5t30.5 3.5h4l1 -3l-3 -31q0 -14 1 -22q0 -4 1 -8z" />
<glyph unicode="&#x2022;" horiz-adv-x="155" d="M136 305q0 -24 -17 -42t-41 -18q-23 0 -40 18t-17 41t17 39t41 16q22 0 39.5 -16.5t17.5 -37.5z" />
<glyph unicode="&#x2026;" horiz-adv-x="424" d="M405 36q0 -18 -12 -32t-30 -14q-19 0 -33.5 13.5t-14.5 31.5t14 32t32 14t31 -13t13 -32zM264 35q0 -18 -12 -32t-30 -14q-19 0 -33.5 13.5t-14.5 31.5t14 32t32 14t31 -13t13 -32zM112 35q0 -19 -12.5 -32.5t-30.5 -13.5q-19 0 -33.5 13.5t-14.5 31.5t15 32t35 14 q17 -2 29 -15t12 -30z" />
<glyph unicode="&#x2122;" horiz-adv-x="683" d="M660 576h-5q-9 0 -17.5 -1t-12.5 -6q-4 -4 -5 -17v-222q2 -12 5 -15q5 -6 24 -6l10 -1v-13h-7l-51 3l-55 -3h-7v13l12 1q16 0 23 6q6 8 5 15v206l-116 -245h-8l-115 244v-205q2 -11 7 -16t23 -5l9 -1v-13h-6l-50 3l-38 -3h-8v13l12 1q15 0 24 6q6 6 5 15v222q1 7 -5 17 q-2 5 -13 5.5t-17 1.5h-4v13l35 -2l45 2l110 -235q27 53 41 82q40 81 55 116l11 29l4 8h5l35 -3l35 3h4zM264 590l-4 -70h-12l-2 11q-1 8 -1.5 16t-4.5 13q-3 4 -10 5q-5 1 -11 1h-57v-233q0 -11 5 -17.5t24 -6.5l10 -1v-13h-7l-52 3l-53 -3h-7v13l14 1q14 0 19.5 5.5 t5.5 18.5v233h-56q-13 0 -17 -4q-3 -3 -5.5 -12.5t-2.5 -14.5l-2 -15h-11l-4 70h8l114 -3l107 3h12z" />
<glyph unicode="&#x2202;" horiz-adv-x="408" d="M392 313q0 -121 -50 -217q-57 -110 -146 -110q-9 1 -13 1q-74 7 -112.5 48t-38.5 109q0 70 47 124t116 54q29 0 53 -10q17 -7 48 -27l26 -19l5 40q3 24 3 49q0 83 -33 140q-38 66 -106 66q-21 0 -41 -6.5t-40 -13.5l-12 -4l-33 38l36 10q18 4 36.5 7.5t39.5 3.5 q99 0 160 -89q55 -80 55 -194zM315 236l-21 22q-15 13 -27 20t-26 8.5t-20 1.5q-40 0 -71 -33t-43 -81q-4 -13 -6 -26t-2 -28q0 -41 18 -71.5t54 -41.5q7 -2 19 -2q44 0 76 56q24 42 38 112z" />
<glyph unicode="&#x2206;" horiz-adv-x="589" d="M566 0h-542l289 604zM458 37l-179 425l-198 -425h377z" />
<glyph unicode="&#x220f;" horiz-adv-x="696" d="M671 -87h-259v17l20 1q17 0 28 2.5t19.5 10t10.5 16.5t2 20v20v545h-302l-1 -542q0 -32 3.5 -41.5t16.5 -19.5q10 -7 19 -8.5t29 -1.5h16v-19h-256l-3 20h19q19 0 27.5 1.5t19.5 8.5q16 12 17.5 28t1.5 33l1 493q0 34 -27 60q-18 14 -39 18l-14 1v18h650v-19l-17 -2 q-12 0 -19 -3t-22 -14t-19.5 -27.5t-4.5 -43.5v-486q0 -21 2.5 -33t13 -22t21 -13t27.5 -3l18 -1z" />
<glyph unicode="&#x221a;" horiz-adv-x="429" d="M411 664l-114 -701l-187 367l-74 -35l-10 24l110 52l151 -296l99 594z" />
<glyph unicode="&#x221e;" horiz-adv-x="654" d="M631 214q0 -58 -37 -96t-88 -38q-32 0 -70 16t-68 44l-39 37l-40 -37q-31 -29 -69 -44.5t-70 -15.5q-52 0 -89 37t-37 97q0 50 38 86t89 36q33 0 63.5 -14.5t62.5 -42.5l50 -45l50 45q30 26 63.5 41.5t64.5 15.5q52 0 89 -35t37 -87zM588 211q-3 34 -27.5 56.5 t-58.5 22.5q-27 0 -48 -10q-14 -7 -40 -27l-60 -44l55 -52q41 -34 91 -34q40 0 64 25t24 63zM300 209l-59 44q-24 19 -42.5 28t-44.5 9q-35 0 -61 -22t-26 -52q0 -41 24 -67t64 -26q52 0 92 34z" />
<glyph unicode="&#x222b;" horiz-adv-x="413" d="M394 639q-10 -31 -42 -31q-9 0 -16.5 8t-10.5 9q-14 -17 -27 -34q-19 -120 -30 -170l-58 -255q-22 -96 -49 -156q-43 -98 -95 -98q-10 0 -16 2q-12 5 -19.5 16t-3.5 22q11 32 40 32q9 0 17 -13q5 -8 11 -10q19 -7 35 54q16 80 23 113l82 356q25 106 58 153q28 40 62 40 q16 0 28.5 -7.5t12.5 -19.5q0 -7 -2 -11z" />
<glyph unicode="&#x2248;" horiz-adv-x="537" d="M512 318l-19 -21q-44 -52 -110 -52q-26 0 -48 6q-28 10 -45 15l-72 21q-27 7 -39 9.5t-22 2.5q-4 0 -22.5 -3t-30.5 -10t-31 -26l-16 -17l-38 26l14 12q23 26 45.5 38.5t57.5 18.5q7 0 15 1t12 1q20 0 43 -6q13 -3 28 -8l66 -21q34 -8 69 -16q7 1 10 1q26 0 44.5 7 t36.5 26l16 17zM511 174l-20 -21q-42 -53 -109 -53q-23 0 -46.5 7t-45.5 15l-73 21q-16 4 -32.5 8t-28.5 4q-6 0 -22 -3t-30 -11t-31 -26l-14 -16l-40 25l14 13q22 26 46 39t46 16.5t40 3.5q30 0 70 -14l64 -19q20 -7 39 -12.5t40 -5.5q27 2 46.5 9.5t35.5 23.5l16 19z" />
<glyph unicode="&#x2260;" horiz-adv-x="482" d="M493 267h-155l-72 -115h217v-44h-246l-77 -128l-40 20l67 109h-127v43h156l71 115h-209v43h235l80 135l41 -20l-71 -115h130v-43z" />
<glyph unicode="&#x2264;" horiz-adv-x="384" d="M363 80l-342 155v37l342 162v-42l-290 -141l290 -133v-38zM362 0h-341v34h341v-34z" />
<glyph unicode="&#x2265;" horiz-adv-x="388" d="M363 235l-342 -155v38l290 133l-290 141v42l342 -162v-37zM363 0h-341v34h341v-34z" />
<glyph unicode="&#x25ca;" horiz-adv-x="410" d="M390 298l-155 -298h-51l-157 301l157 290h50zM343 298l-134 250l-135 -249l136 -265z" />
<glyph unicode="&#x25fc;" d="M0 435h435v-435h-435v435z" />
</font>
</defs>
</svg>
